<svg width="523" height="258" viewBox="0 0 523 258" fill="none" xmlns="http://www.w3.org/2000/svg">
<g clip-path="url(#clip0_2065_3472)">
<rect x="1" y="1" width="521" height="255.5" rx="23" fill="url(#paint0_linear_2065_3472)"/>
<g clip-path="url(#clip1_2065_3472)">
<rect x="212.375" y="-18.7529" width="140.175" height="72.3536" rx="6.96848" fill="#10132E"/>
<path d="M255.458 22.7134V12.5774H259.259C260.037 12.5774 260.691 12.7127 261.219 12.9832C261.75 13.2538 262.151 13.6332 262.421 14.1216C262.695 14.6066 262.832 15.1724 262.832 15.8191C262.832 16.4691 262.694 17.0333 262.416 17.5118C262.143 17.9869 261.738 18.3548 261.204 18.6154C260.669 18.8728 260.013 19.0015 259.234 19.0015H256.527V17.4771H258.987C259.442 17.4771 259.815 17.4144 260.105 17.289C260.395 17.1604 260.61 16.9739 260.748 16.7298C260.89 16.4823 260.961 16.1788 260.961 15.8191C260.961 15.4595 260.89 15.1526 260.748 14.8986C260.607 14.6412 260.39 14.4466 260.1 14.3146C259.81 14.1793 259.435 14.1117 258.977 14.1117H257.294V22.7134H255.458ZM260.694 18.1205L263.203 22.7134H261.154L258.69 18.1205H260.694ZM267.7 22.8619C266.937 22.8619 266.279 22.7035 265.725 22.3867C265.174 22.0667 264.75 21.6147 264.453 21.0306C264.156 20.4433 264.008 19.7521 264.008 18.9569C264.008 18.175 264.156 17.4887 264.453 16.8981C264.753 16.3042 265.172 15.8422 265.71 15.5123C266.248 15.179 266.88 15.0124 267.606 15.0124C268.074 15.0124 268.516 15.0883 268.932 15.2401C269.351 15.3886 269.721 15.6195 270.041 15.933C270.364 16.2464 270.618 16.6457 270.803 17.1307C270.988 17.6124 271.08 18.1865 271.08 18.853V19.4024H264.849V18.1948H269.363C269.359 17.8516 269.285 17.5464 269.14 17.2791C268.995 17.0086 268.792 16.7958 268.531 16.6407C268.274 16.4856 267.973 16.4081 267.63 16.4081C267.264 16.4081 266.942 16.4972 266.665 16.6753C266.388 16.8502 266.172 17.0812 266.017 17.3682C265.865 17.652 265.788 17.9638 265.784 18.3036V19.3578C265.784 19.7999 265.865 20.1794 266.027 20.4961C266.188 20.8096 266.414 21.0504 266.705 21.2187C266.995 21.3837 267.335 21.4662 267.724 21.4662C267.985 21.4662 268.221 21.4299 268.432 21.3573C268.643 21.2814 268.826 21.1709 268.981 21.0257C269.137 20.8805 269.254 20.7007 269.333 20.4862L271.006 20.6743C270.9 21.1164 270.699 21.5025 270.402 21.8324C270.108 22.1591 269.732 22.4131 269.273 22.5946C268.815 22.7728 268.29 22.8619 267.7 22.8619ZM274.783 22.8668C274.301 22.8668 273.868 22.781 273.482 22.6094C273.099 22.4346 272.795 22.1772 272.571 21.8374C272.35 21.4975 272.239 21.0785 272.239 20.5803C272.239 20.1513 272.318 19.7966 272.477 19.5162C272.635 19.2357 272.851 19.0114 273.125 18.8431C273.399 18.6748 273.708 18.5478 274.051 18.462C274.397 18.3729 274.755 18.3086 275.125 18.269C275.57 18.2228 275.931 18.1816 276.209 18.1453C276.486 18.1057 276.687 18.0463 276.812 17.9671C276.941 17.8846 277.005 17.7576 277.005 17.586V17.5563C277.005 17.1835 276.895 16.8948 276.674 16.6902C276.453 16.4856 276.134 16.3833 275.719 16.3833C275.28 16.3833 274.932 16.479 274.674 16.6704C274.42 16.8618 274.249 17.0878 274.16 17.3484L272.487 17.1109C272.619 16.649 272.836 16.2629 273.14 15.9528C273.444 15.6393 273.815 15.4051 274.254 15.25C274.692 15.0916 275.177 15.0124 275.709 15.0124C276.075 15.0124 276.44 15.0553 276.802 15.1411C277.165 15.2269 277.497 15.3688 277.797 15.5667C278.098 15.7614 278.338 16.027 278.52 16.3635C278.705 16.7001 278.797 17.1208 278.797 17.6256V22.7134H277.075V21.6691H277.015C276.906 21.8803 276.753 22.0782 276.555 22.263C276.36 22.4445 276.115 22.5913 275.818 22.7035C275.524 22.8124 275.179 22.8668 274.783 22.8668ZM275.248 21.5503C275.608 21.5503 275.92 21.4794 276.184 21.3375C276.448 21.1923 276.651 21.001 276.793 20.7634C276.938 20.5258 277.01 20.2668 277.01 19.9864V19.0906C276.954 19.1368 276.859 19.1796 276.723 19.2192C276.591 19.2588 276.443 19.2935 276.278 19.3232C276.113 19.3529 275.95 19.3793 275.788 19.4024C275.626 19.4255 275.486 19.4453 275.367 19.4617C275.1 19.498 274.861 19.5574 274.65 19.6399C274.438 19.7224 274.272 19.8379 274.15 19.9864C274.028 20.1315 273.967 20.3196 273.967 20.5506C273.967 20.8805 274.087 21.1296 274.328 21.2979C274.569 21.4662 274.876 21.5503 275.248 21.5503ZM283.914 22.8619C283.156 22.8619 282.504 22.6952 281.96 22.362C281.418 22.0287 281.001 21.5685 280.707 20.9812C280.417 20.3906 280.272 19.7109 280.272 18.9421C280.272 18.17 280.42 17.4887 280.717 16.8981C281.014 16.3042 281.433 15.8422 281.974 15.5123C282.519 15.179 283.162 15.0124 283.905 15.0124C284.522 15.0124 285.068 15.1262 285.543 15.3539C286.021 15.5783 286.402 15.8967 286.686 16.3091C286.97 16.7182 287.131 17.1967 287.171 17.7444H285.459C285.389 17.3781 285.224 17.0729 284.964 16.8288C284.706 16.5813 284.362 16.4576 283.929 16.4576C283.563 16.4576 283.241 16.5566 282.964 16.7545C282.687 16.9492 282.471 17.2297 282.316 17.5959C282.164 17.9621 282.088 18.401 282.088 18.9124C282.088 19.4304 282.164 19.8758 282.316 20.2487C282.468 20.6182 282.68 20.9036 282.954 21.1049C283.231 21.3029 283.556 21.4018 283.929 21.4018C284.193 21.4018 284.429 21.3523 284.637 21.2534C284.848 21.1511 285.025 21.0043 285.167 20.8129C285.308 20.6215 285.406 20.3889 285.459 20.115H287.171C287.128 20.6529 286.97 21.1296 286.696 21.5454C286.422 21.9578 286.049 22.2811 285.577 22.5154C285.106 22.7464 284.551 22.8619 283.914 22.8619ZM292.438 15.1114V16.4972H288.068V15.1114H292.438ZM289.147 13.2901H290.939V20.4268C290.939 20.6677 290.975 20.8525 291.048 20.9812C291.123 21.1065 291.222 21.1923 291.344 21.2385C291.467 21.2847 291.602 21.3078 291.75 21.3078C291.862 21.3078 291.965 21.2996 292.057 21.2831C292.153 21.2666 292.225 21.2517 292.275 21.2385L292.577 22.6391C292.481 22.6721 292.344 22.7084 292.166 22.748C291.991 22.7876 291.777 22.8107 291.523 22.8173C291.074 22.8305 290.67 22.7629 290.31 22.6144C289.95 22.4626 289.665 22.2284 289.454 21.9116C289.246 21.5949 289.144 21.1989 289.147 20.7238V13.2901ZM298.015 12.5774H299.836V19.7043C299.833 20.3576 299.694 20.9201 299.42 21.3919C299.146 21.8605 298.764 22.2218 298.272 22.4758C297.784 22.7266 297.215 22.852 296.565 22.852C295.971 22.852 295.436 22.7464 294.961 22.5352C294.489 22.3207 294.115 22.004 293.838 21.585C293.56 21.1659 293.422 20.6446 293.422 20.021H295.248C295.251 20.2949 295.311 20.5308 295.426 20.7287C295.545 20.9267 295.708 21.0785 295.916 21.1841C296.124 21.2897 296.363 21.3424 296.634 21.3424C296.928 21.3424 297.177 21.2814 297.381 21.1593C297.586 21.0339 297.741 20.8492 297.846 20.605C297.955 20.3609 298.011 20.0606 298.015 19.7043V12.5774ZM307.337 15.3638C307.29 14.9316 307.096 14.595 306.753 14.3542C306.413 14.1133 305.971 13.9929 305.426 13.9929C305.043 13.9929 304.715 14.0506 304.441 14.1661C304.167 14.2816 303.958 14.4383 303.813 14.6363C303.668 14.8342 303.593 15.0603 303.59 15.3143C303.59 15.5255 303.638 15.7086 303.734 15.8637C303.833 16.0188 303.966 16.1507 304.134 16.2596C304.303 16.3652 304.489 16.4543 304.694 16.5269C304.898 16.5995 305.104 16.6605 305.312 16.71L306.263 16.9476C306.645 17.0366 307.013 17.1571 307.366 17.3088C307.723 17.4606 308.041 17.652 308.321 17.883C308.605 18.1139 308.83 18.3927 308.995 18.7194C309.16 19.046 309.242 19.4288 309.242 19.8676C309.242 20.4615 309.09 20.9845 308.787 21.4365C308.483 21.8852 308.044 22.2366 307.47 22.4907C306.899 22.7414 306.208 22.8668 305.397 22.8668C304.608 22.8668 303.923 22.7447 303.343 22.5006C302.765 22.2564 302.313 21.9001 301.986 21.4315C301.663 20.963 301.488 20.3922 301.462 19.7191H303.268C303.295 20.0722 303.404 20.3658 303.595 20.6001C303.786 20.8343 304.035 21.0092 304.342 21.1247C304.652 21.2402 304.999 21.2979 305.382 21.2979C305.781 21.2979 306.131 21.2385 306.431 21.1197C306.734 20.9977 306.972 20.8294 307.144 20.6149C307.315 20.3972 307.403 20.1431 307.406 19.8527C307.403 19.5888 307.325 19.371 307.173 19.1994C307.021 19.0246 306.809 18.8794 306.535 18.7639C306.264 18.6451 305.948 18.5395 305.585 18.4472L304.431 18.1502C303.597 17.9357 302.937 17.6107 302.452 17.1752C301.97 16.7364 301.729 16.154 301.729 15.4281C301.729 14.8309 301.891 14.308 302.214 13.8592C302.541 13.4105 302.985 13.0624 303.545 12.815C304.106 12.5642 304.742 12.4388 305.451 12.4388C306.17 12.4388 306.8 12.5642 307.342 12.815C307.886 13.0624 308.313 13.4072 308.623 13.8493C308.934 14.2882 309.094 14.793 309.103 15.3638H307.337Z" fill="white"/>
<rect x="212.375" y="65.7954" width="140.175" height="72.3536" rx="6.96848" fill="#10132E"/>
<path d="M256.662 107.261V97.1255H263.254V98.6647H258.498V101.416H262.913V102.956H258.498V105.722H263.294V107.261H256.662ZM266.514 99.6595L268.048 102.466L269.607 99.6595H271.502L269.211 103.46L271.542 107.261H269.656L268.048 104.525L266.454 107.261H264.554L266.87 103.46L264.613 99.6595H266.514ZM272.888 110.112V99.6595H274.65V100.917H274.754C274.846 100.732 274.977 100.536 275.145 100.328C275.313 100.116 275.541 99.9366 275.828 99.7882C276.115 99.6364 276.481 99.5605 276.927 99.5605C277.514 99.5605 278.044 99.7106 278.515 100.011C278.99 100.308 279.367 100.748 279.644 101.332C279.924 101.913 280.064 102.626 280.064 103.47C280.064 104.305 279.928 105.015 279.654 105.599C279.38 106.183 279.007 106.628 278.535 106.935C278.063 107.242 277.529 107.395 276.932 107.395C276.496 107.395 276.135 107.323 275.848 107.177C275.561 107.032 275.33 106.857 275.155 106.653C274.983 106.445 274.85 106.249 274.754 106.064H274.68V110.112H272.888ZM274.645 103.46C274.645 103.952 274.714 104.383 274.853 104.752C274.995 105.122 275.198 105.41 275.462 105.618C275.729 105.823 276.052 105.925 276.432 105.925C276.828 105.925 277.159 105.82 277.427 105.608C277.694 105.394 277.895 105.102 278.03 104.732C278.169 104.36 278.238 103.936 278.238 103.46C278.238 102.989 278.171 102.57 278.035 102.203C277.9 101.837 277.699 101.55 277.431 101.342C277.164 101.134 276.831 101.03 276.432 101.03C276.049 101.03 275.724 101.131 275.457 101.332C275.19 101.534 274.987 101.816 274.848 102.179C274.713 102.542 274.645 102.969 274.645 103.46ZM281.599 107.261V99.6595H283.336V100.926H283.415C283.554 100.488 283.791 100.149 284.128 99.9119C284.468 99.671 284.855 99.5506 285.291 99.5506C285.39 99.5506 285.5 99.5556 285.622 99.5655C285.748 99.5721 285.852 99.5836 285.934 99.6001V101.248C285.858 101.222 285.738 101.199 285.573 101.179C285.411 101.156 285.255 101.144 285.103 101.144C284.776 101.144 284.482 101.215 284.222 101.357C283.964 101.496 283.762 101.689 283.613 101.936C283.465 102.184 283.39 102.469 283.39 102.792V107.261H281.599ZM290.177 107.41C289.415 107.41 288.757 107.252 288.202 106.935C287.651 106.615 287.227 106.163 286.93 105.579C286.633 104.991 286.485 104.3 286.485 103.505C286.485 102.723 286.633 102.037 286.93 101.446C287.231 100.852 287.65 100.39 288.187 100.06C288.725 99.7271 289.357 99.5605 290.083 99.5605C290.551 99.5605 290.994 99.6364 291.409 99.7882C291.828 99.9366 292.198 100.168 292.518 100.481C292.841 100.795 293.095 101.194 293.28 101.679C293.465 102.16 293.557 102.735 293.557 103.401V103.95H287.326V102.743H291.84C291.837 102.4 291.762 102.095 291.617 101.827C291.472 101.557 291.269 101.344 291.008 101.189C290.751 101.034 290.451 100.956 290.108 100.956C289.741 100.956 289.42 101.045 289.143 101.223C288.865 101.398 288.649 101.629 288.494 101.916C288.342 102.2 288.265 102.512 288.262 102.852V103.906C288.262 104.348 288.342 104.727 288.504 105.044C288.666 105.358 288.892 105.599 289.182 105.767C289.473 105.932 289.812 106.014 290.202 106.014C290.462 106.014 290.698 105.978 290.909 105.905C291.121 105.83 291.304 105.719 291.459 105.574C291.614 105.429 291.731 105.249 291.81 105.034L293.483 105.222C293.377 105.665 293.176 106.051 292.879 106.381C292.586 106.707 292.209 106.961 291.751 107.143C291.292 107.321 290.768 107.41 290.177 107.41ZM301.081 101.669L299.448 101.847C299.402 101.682 299.321 101.527 299.206 101.382C299.093 101.237 298.942 101.12 298.75 101.03C298.559 100.941 298.325 100.897 298.047 100.897C297.675 100.897 297.361 100.978 297.107 101.139C296.856 101.301 296.733 101.51 296.736 101.768C296.733 101.989 296.813 102.169 296.978 102.307C297.147 102.446 297.424 102.56 297.81 102.649L299.107 102.926C299.826 103.081 300.36 103.327 300.71 103.663C301.063 104 301.241 104.44 301.245 104.985C301.241 105.463 301.101 105.886 300.824 106.252C300.55 106.615 300.169 106.899 299.681 107.103C299.192 107.308 298.631 107.41 297.998 107.41C297.067 107.41 296.318 107.215 295.751 106.826C295.183 106.433 294.845 105.887 294.736 105.188L296.483 105.019C296.563 105.363 296.731 105.622 296.988 105.797C297.246 105.971 297.581 106.059 297.993 106.059C298.419 106.059 298.76 105.971 299.017 105.797C299.278 105.622 299.408 105.406 299.408 105.148C299.408 104.93 299.324 104.751 299.156 104.609C298.991 104.467 298.734 104.358 298.384 104.282L297.087 104.01C296.358 103.858 295.819 103.602 295.469 103.243C295.119 102.88 294.946 102.421 294.949 101.867C294.946 101.398 295.073 100.992 295.33 100.649C295.591 100.303 295.952 100.036 296.414 99.8476C296.879 99.6562 297.416 99.5605 298.023 99.5605C298.914 99.5605 299.615 99.7502 300.126 100.13C300.641 100.509 300.959 101.022 301.081 101.669ZM308.73 101.669L307.097 101.847C307.051 101.682 306.97 101.527 306.855 101.382C306.742 101.237 306.591 101.12 306.399 101.03C306.208 100.941 305.974 100.897 305.696 100.897C305.324 100.897 305.01 100.978 304.756 101.139C304.505 101.301 304.382 101.51 304.385 101.768C304.382 101.989 304.462 102.169 304.627 102.307C304.796 102.446 305.073 102.56 305.459 102.649L306.756 102.926C307.475 103.081 308.009 103.327 308.359 103.663C308.712 104 308.89 104.44 308.894 104.985C308.89 105.463 308.75 105.886 308.473 106.252C308.199 106.615 307.818 106.899 307.33 107.103C306.841 107.308 306.28 107.41 305.647 107.41C304.716 107.41 303.967 107.215 303.4 106.826C302.832 106.433 302.494 105.887 302.385 105.188L304.132 105.019C304.212 105.363 304.38 105.622 304.637 105.797C304.895 105.971 305.23 106.059 305.642 106.059C306.068 106.059 306.409 105.971 306.666 105.797C306.927 105.622 307.057 105.406 307.057 105.148C307.057 104.93 306.973 104.751 306.805 104.609C306.64 104.467 306.383 104.358 306.033 104.282L304.736 104.01C304.007 103.858 303.468 103.602 303.118 103.243C302.768 102.88 302.595 102.421 302.598 101.867C302.595 101.398 302.722 100.992 302.979 100.649C303.24 100.303 303.601 100.036 304.063 99.8476C304.528 99.6562 305.065 99.5605 305.672 99.5605C306.563 99.5605 307.264 99.7502 307.775 100.13C308.29 100.509 308.608 101.022 308.73 101.669Z" fill="white"/>
<rect x="212.375" y="150.344" width="140.175" height="72.3536" rx="6.96848" fill="#10132E"/>
<path d="M247.613 183.213V181.674H255.7V183.213H252.567V191.81H250.745V183.213H247.613ZM257.422 194.661C257.178 194.661 256.952 194.641 256.744 194.601C256.539 194.565 256.376 194.522 256.254 194.473L256.67 193.077C256.93 193.153 257.163 193.189 257.368 193.186C257.572 193.183 257.752 193.118 257.907 192.993C258.065 192.871 258.199 192.666 258.308 192.379L258.461 191.968L255.705 184.208H257.605L259.357 189.949H259.436L261.193 184.208H263.099L260.055 192.731C259.913 193.133 259.725 193.478 259.491 193.765C259.256 194.055 258.969 194.276 258.63 194.428C258.293 194.583 257.89 194.661 257.422 194.661ZM264.338 194.661V184.208H266.1V185.465H266.204C266.297 185.28 266.427 185.084 266.595 184.876C266.764 184.665 266.991 184.485 267.278 184.337C267.565 184.185 267.932 184.109 268.377 184.109C268.964 184.109 269.494 184.259 269.966 184.559C270.441 184.856 270.817 185.297 271.094 185.881C271.375 186.462 271.515 187.174 271.515 188.019C271.515 188.854 271.378 189.563 271.104 190.147C270.83 190.731 270.457 191.177 269.986 191.483C269.514 191.79 268.979 191.944 268.382 191.944C267.946 191.944 267.585 191.871 267.298 191.726C267.011 191.581 266.78 191.406 266.605 191.201C266.434 190.993 266.3 190.797 266.204 190.612H266.13V194.661H264.338ZM266.095 188.009C266.095 188.501 266.165 188.931 266.303 189.301C266.445 189.67 266.648 189.959 266.912 190.167C267.179 190.371 267.503 190.474 267.882 190.474C268.278 190.474 268.61 190.368 268.877 190.157C269.144 189.943 269.345 189.651 269.481 189.281C269.619 188.908 269.689 188.484 269.689 188.009C269.689 187.537 269.621 187.118 269.486 186.752C269.35 186.386 269.149 186.099 268.882 185.891C268.615 185.683 268.281 185.579 267.882 185.579C267.499 185.579 267.174 185.68 266.907 185.881C266.64 186.082 266.437 186.364 266.298 186.727C266.163 187.09 266.095 187.517 266.095 188.009ZM276.415 191.959C275.652 191.959 274.994 191.8 274.44 191.483C273.889 191.163 273.465 190.711 273.168 190.127C272.871 189.54 272.722 188.849 272.722 188.054C272.722 187.272 272.871 186.585 273.168 185.995C273.468 185.401 273.887 184.939 274.425 184.609C274.963 184.276 275.595 184.109 276.321 184.109C276.789 184.109 277.231 184.185 277.647 184.337C278.066 184.485 278.435 184.716 278.756 185.03C279.079 185.343 279.333 185.742 279.518 186.227C279.702 186.709 279.795 187.283 279.795 187.95V188.499H273.564V187.291H278.077C278.074 186.948 278 186.643 277.855 186.376C277.71 186.105 277.507 185.892 277.246 185.737C276.989 185.582 276.688 185.505 276.345 185.505C275.979 185.505 275.657 185.594 275.38 185.772C275.103 185.947 274.887 186.178 274.732 186.465C274.58 186.749 274.503 187.06 274.499 187.4V188.454C274.499 188.897 274.58 189.276 274.742 189.593C274.903 189.906 275.129 190.147 275.42 190.315C275.71 190.48 276.05 190.563 276.439 190.563C276.7 190.563 276.936 190.527 277.147 190.454C277.358 190.378 277.541 190.268 277.696 190.122C277.851 189.977 277.969 189.797 278.048 189.583L279.721 189.771C279.615 190.213 279.414 190.599 279.117 190.929C278.823 191.256 278.447 191.51 277.988 191.691C277.53 191.869 277.005 191.959 276.415 191.959ZM287.319 186.217L285.686 186.396C285.639 186.231 285.559 186.076 285.443 185.93C285.331 185.785 285.179 185.668 284.988 185.579C284.796 185.49 284.562 185.445 284.285 185.445C283.912 185.445 283.599 185.526 283.345 185.688C283.094 185.85 282.97 186.059 282.973 186.316C282.97 186.538 283.051 186.717 283.216 186.856C283.384 186.994 283.661 187.108 284.047 187.197L285.344 187.475C286.063 187.63 286.598 187.875 286.948 188.212C287.301 188.549 287.479 188.989 287.482 189.533C287.479 190.012 287.339 190.434 287.062 190.8C286.788 191.163 286.407 191.447 285.918 191.652C285.43 191.856 284.869 191.959 284.236 191.959C283.305 191.959 282.556 191.764 281.989 191.375C281.421 190.982 281.083 190.436 280.974 189.736L282.721 189.568C282.8 189.911 282.969 190.17 283.226 190.345C283.483 190.52 283.818 190.607 284.231 190.607C284.656 190.607 284.998 190.52 285.255 190.345C285.516 190.17 285.646 189.954 285.646 189.697C285.646 189.479 285.562 189.299 285.394 189.157C285.229 189.015 284.971 188.907 284.622 188.831L283.325 188.558C282.596 188.407 282.056 188.151 281.706 187.791C281.357 187.428 281.184 186.97 281.187 186.415C281.184 185.947 281.311 185.541 281.568 185.198C281.829 184.851 282.19 184.584 282.652 184.396C283.117 184.205 283.653 184.109 284.26 184.109C285.151 184.109 285.852 184.299 286.364 184.678C286.878 185.058 287.197 185.571 287.319 186.217ZM292.276 191.959C291.517 191.959 290.865 191.792 290.321 191.459C289.779 191.125 289.362 190.665 289.068 190.078C288.778 189.487 288.633 188.808 288.633 188.039C288.633 187.267 288.781 186.585 289.078 185.995C289.375 185.401 289.794 184.939 290.335 184.609C290.88 184.276 291.523 184.109 292.266 184.109C292.883 184.109 293.429 184.223 293.904 184.451C294.382 184.675 294.763 184.993 295.047 185.406C295.331 185.815 295.493 186.293 295.532 186.841H293.82C293.75 186.475 293.585 186.17 293.325 185.925C293.067 185.678 292.723 185.554 292.29 185.554C291.924 185.554 291.602 185.653 291.325 185.851C291.048 186.046 290.832 186.326 290.677 186.693C290.525 187.059 290.449 187.498 290.449 188.009C290.449 188.527 290.525 188.973 290.677 189.345C290.829 189.715 291.042 190 291.315 190.202C291.593 190.4 291.918 190.499 292.29 190.499C292.554 190.499 292.79 190.449 292.998 190.35C293.209 190.248 293.386 190.101 293.528 189.91C293.67 189.718 293.767 189.486 293.82 189.212H295.532C295.489 189.75 295.331 190.226 295.057 190.642C294.783 191.054 294.41 191.378 293.938 191.612C293.467 191.843 292.912 191.959 292.276 191.959ZM297.003 191.81V184.208H298.74V185.475H298.82C298.958 185.036 299.196 184.698 299.532 184.46C299.872 184.22 300.26 184.099 300.695 184.099C300.794 184.099 300.905 184.104 301.027 184.114C301.152 184.121 301.256 184.132 301.339 184.149V185.797C301.263 185.77 301.142 185.747 300.977 185.727C300.816 185.704 300.659 185.693 300.507 185.693C300.181 185.693 299.887 185.764 299.626 185.906C299.369 186.044 299.166 186.237 299.018 186.485C298.869 186.732 298.795 187.018 298.795 187.341V191.81H297.003ZM302.529 191.81V184.208H304.321V191.81H302.529ZM303.43 183.129C303.146 183.129 302.902 183.035 302.697 182.847C302.493 182.656 302.39 182.426 302.39 182.159C302.39 181.889 302.493 181.659 302.697 181.471C302.902 181.28 303.146 181.184 303.43 181.184C303.717 181.184 303.961 181.28 304.162 181.471C304.367 181.659 304.469 181.889 304.469 182.159C304.469 182.426 304.367 182.656 304.162 182.847C303.961 183.035 303.717 183.129 303.43 183.129ZM306.163 194.661V184.208H307.925V185.465H308.029C308.121 185.28 308.252 185.084 308.42 184.876C308.588 184.665 308.816 184.485 309.103 184.337C309.39 184.185 309.756 184.109 310.202 184.109C310.789 184.109 311.318 184.259 311.79 184.559C312.265 184.856 312.642 185.297 312.919 185.881C313.199 186.462 313.339 187.174 313.339 188.019C313.339 188.854 313.202 189.563 312.929 190.147C312.655 190.731 312.282 191.177 311.81 191.483C311.338 191.79 310.804 191.944 310.206 191.944C309.771 191.944 309.41 191.871 309.123 191.726C308.836 191.581 308.605 191.406 308.43 191.201C308.258 190.993 308.125 190.797 308.029 190.612H307.955V194.661H306.163ZM307.92 188.009C307.92 188.501 307.989 188.931 308.128 189.301C308.27 189.67 308.473 189.959 308.737 190.167C309.004 190.371 309.327 190.474 309.707 190.474C310.103 190.474 310.434 190.368 310.701 190.157C310.969 189.943 311.17 189.651 311.305 189.281C311.444 188.908 311.513 188.484 311.513 188.009C311.513 187.537 311.445 187.118 311.31 186.752C311.175 186.386 310.974 186.099 310.706 185.891C310.439 185.683 310.106 185.579 309.707 185.579C309.324 185.579 308.999 185.68 308.732 185.881C308.464 186.082 308.261 186.364 308.123 186.727C307.988 187.09 307.92 187.517 307.92 188.009ZM318.67 184.208V185.594H314.299V184.208H318.67ZM315.378 182.387H317.17V189.524C317.17 189.764 317.206 189.949 317.279 190.078C317.355 190.203 317.454 190.289 317.576 190.335C317.698 190.381 317.833 190.404 317.982 190.404C318.094 190.404 318.196 190.396 318.289 190.38C318.384 190.363 318.457 190.348 318.506 190.335L318.808 191.736C318.713 191.769 318.576 191.805 318.397 191.845C318.223 191.884 318.008 191.907 317.754 191.914C317.305 191.927 316.901 191.86 316.541 191.711C316.182 191.559 315.896 191.325 315.685 191.008C315.477 190.692 315.375 190.296 315.378 189.82V182.387Z" fill="white"/>
<rect x="212.375" y="234.892" width="140.175" height="72.3536" rx="6.96848" fill="#10132E"/>
</g>
<g clip-path="url(#clip2_2065_3472)">
<rect x="362.197" y="-54.7568" width="140.175" height="72.3536" rx="6.96848" fill="#10132E"/>
<rect x="362.197" y="29.7915" width="140.175" height="72.3536" rx="6.96848" fill="#10132E"/>
<path d="M415.851 61.1218V71.2578H414.218L409.442 64.3537H409.358V71.2578H407.522V61.1218H409.165L413.936 68.0309H414.025V61.1218H415.851ZM421.089 71.4063C420.346 71.4063 419.703 71.243 419.159 70.9163C418.614 70.5897 418.192 70.1327 417.892 69.5454C417.595 68.9581 417.446 68.2718 417.446 67.4865C417.446 66.7012 417.595 66.0133 417.892 65.4227C418.192 64.8321 418.614 64.3735 419.159 64.0468C419.703 63.7202 420.346 63.5568 421.089 63.5568C421.831 63.5568 422.475 63.7202 423.019 64.0468C423.563 64.3735 423.984 64.8321 424.281 65.4227C424.581 66.0133 424.731 66.7012 424.731 67.4865C424.731 68.2718 424.581 68.9581 424.281 69.5454C423.984 70.1327 423.563 70.5897 423.019 70.9163C422.475 71.243 421.831 71.4063 421.089 71.4063ZM421.099 69.971C421.501 69.971 421.838 69.8605 422.108 69.6394C422.379 69.4151 422.58 69.1148 422.712 68.7387C422.847 68.3625 422.915 67.9435 422.915 67.4816C422.915 67.0163 422.847 66.5957 422.712 66.2195C422.58 65.8401 422.379 65.5382 422.108 65.3138C421.838 65.0895 421.501 64.9773 421.099 64.9773C420.686 64.9773 420.343 65.0895 420.069 65.3138C419.799 65.5382 419.596 65.8401 419.461 66.2195C419.329 66.5957 419.263 67.0163 419.263 67.4816C419.263 67.9435 419.329 68.3625 419.461 68.7387C419.596 69.1148 419.799 69.4151 420.069 69.6394C420.343 69.8605 420.686 69.971 421.099 69.971ZM429.073 71.3914C428.476 71.3914 427.941 71.238 427.47 70.9312C426.998 70.6243 426.625 70.1789 426.351 69.5949C426.077 69.0109 425.94 68.3015 425.94 67.4667C425.94 66.6221 426.079 65.9094 426.356 65.3287C426.636 64.7447 427.014 64.3042 427.489 64.0072C427.965 63.707 428.494 63.5568 429.078 63.5568C429.524 63.5568 429.89 63.6327 430.177 63.7845C430.464 63.933 430.692 64.1128 430.86 64.324C431.028 64.5318 431.158 64.7282 431.251 64.9129H431.325V61.1218H433.122V71.2578H431.36V70.0601H431.251C431.158 70.2449 431.025 70.4412 430.85 70.6491C430.675 70.8536 430.444 71.0285 430.157 71.1737C429.87 71.3189 429.509 71.3914 429.073 71.3914ZM429.573 69.9215C429.952 69.9215 430.276 69.8192 430.543 69.6147C430.81 69.4068 431.013 69.1181 431.152 68.7486C431.29 68.379 431.36 67.9484 431.36 67.4568C431.36 66.9652 431.29 66.5379 431.152 66.175C431.017 65.812 430.815 65.5299 430.548 65.3287C430.284 65.1274 429.959 65.0268 429.573 65.0268C429.174 65.0268 428.841 65.1307 428.573 65.3386C428.306 65.5464 428.105 65.8335 427.969 66.1997C427.834 66.566 427.767 66.985 427.767 67.4568C427.767 67.9319 427.834 68.3559 427.969 68.7288C428.108 69.0983 428.311 69.3903 428.578 69.6048C428.849 69.8159 429.18 69.9215 429.573 69.9215ZM438.396 71.4063C437.634 71.4063 436.976 71.2479 436.421 70.9312C435.87 70.6111 435.447 70.1591 435.15 69.5751C434.853 68.9878 434.704 68.2965 434.704 67.5014C434.704 66.7194 434.853 66.0331 435.15 65.4425C435.45 64.8486 435.869 64.3867 436.407 64.0567C436.944 63.7235 437.576 63.5568 438.302 63.5568C438.771 63.5568 439.213 63.6327 439.629 63.7845C440.048 63.933 440.417 64.1639 440.737 64.4774C441.061 64.7908 441.315 65.1901 441.499 65.6751C441.684 66.1568 441.777 66.7309 441.777 67.3974V67.9468H435.545V66.7392H440.059C440.056 66.396 439.982 66.0908 439.836 65.8236C439.691 65.553 439.488 65.3402 439.228 65.1851C438.97 65.0301 438.67 64.9525 438.327 64.9525C437.961 64.9525 437.639 65.0416 437.362 65.2198C437.085 65.3947 436.869 65.6256 436.713 65.9127C436.562 66.1964 436.484 66.5082 436.481 66.8481V67.9023C436.481 68.3444 436.562 68.7238 436.723 69.0406C436.885 69.354 437.111 69.5949 437.401 69.7632C437.692 69.9281 438.032 70.0106 438.421 70.0106C438.682 70.0106 438.918 69.9743 439.129 69.9017C439.34 69.8258 439.523 69.7153 439.678 69.5701C439.833 69.425 439.95 69.2451 440.029 69.0307L441.702 69.2187C441.597 69.6609 441.395 70.0469 441.098 70.3769C440.805 70.7035 440.429 70.9576 439.97 71.139C439.511 71.3172 438.987 71.4063 438.396 71.4063ZM447.37 61.1218H449.192V68.2487C449.188 68.902 449.05 69.4645 448.776 69.9364C448.502 70.4049 448.119 70.7662 447.628 71.0203C447.139 71.271 446.57 71.3964 445.92 71.3964C445.326 71.3964 444.792 71.2908 444.317 71.0796C443.845 70.8652 443.47 70.5484 443.193 70.1294C442.916 69.7104 442.778 69.189 442.778 68.5654H444.604C444.607 68.8393 444.666 69.0752 444.782 69.2732C444.901 69.4711 445.064 69.6229 445.272 69.7285C445.48 69.8341 445.719 69.8869 445.99 69.8869C446.283 69.8869 446.532 69.8258 446.737 69.7038C446.941 69.5784 447.097 69.3936 447.202 69.1495C447.311 68.9053 447.367 68.605 447.37 68.2487V61.1218ZM456.692 63.9082C456.646 63.476 456.451 63.1395 456.108 62.8986C455.768 62.6577 455.326 62.5373 454.782 62.5373C454.399 62.5373 454.071 62.5951 453.797 62.7105C453.523 62.826 453.314 62.9827 453.168 63.1807C453.023 63.3787 452.949 63.6047 452.946 63.8587C452.946 64.0699 452.993 64.253 453.089 64.4081C453.188 64.5632 453.322 64.6952 453.49 64.804C453.658 64.9096 453.845 64.9987 454.049 65.0713C454.254 65.1439 454.46 65.2049 454.668 65.2544L455.618 65.492C456.001 65.5811 456.369 65.7015 456.722 65.8533C457.078 66.0051 457.397 66.1964 457.677 66.4274C457.961 66.6583 458.185 66.9372 458.35 67.2638C458.515 67.5905 458.598 67.9732 458.598 68.412C458.598 69.0059 458.446 69.5289 458.142 69.9809C457.839 70.4296 457.4 70.781 456.826 71.0351C456.255 71.2859 455.564 71.4112 454.752 71.4112C453.964 71.4112 453.279 71.2892 452.698 71.045C452.121 70.8008 451.669 70.4445 451.342 69.976C451.019 69.5074 450.844 68.9366 450.817 68.2635H452.624C452.65 68.6166 452.759 68.9102 452.951 69.1445C453.142 69.3788 453.391 69.5536 453.698 69.6691C454.008 69.7846 454.355 69.8423 454.737 69.8423C455.137 69.8423 455.486 69.7829 455.787 69.6642C456.09 69.5421 456.328 69.3738 456.499 69.1593C456.671 68.9416 456.758 68.6875 456.761 68.3972C456.758 68.1332 456.681 67.9154 456.529 67.7439C456.377 67.569 456.164 67.4238 455.89 67.3083C455.62 67.1896 455.303 67.084 454.94 66.9916L453.787 66.6946C452.952 66.4802 452.292 66.1552 451.807 65.7197C451.326 65.2808 451.085 64.6985 451.085 63.9726C451.085 63.3754 451.246 62.8524 451.57 62.4037C451.896 61.955 452.34 61.6069 452.901 61.3594C453.462 61.1086 454.097 60.9833 454.807 60.9833C455.526 60.9833 456.156 61.1086 456.697 61.3594C457.242 61.6069 457.669 61.9517 457.979 62.3938C458.289 62.8326 458.449 63.3374 458.459 63.9082H456.692Z" fill="white"/>
<rect x="362.197" y="114.34" width="140.175" height="72.3536" rx="6.96848" fill="#10132E"/>
<path d="M418.091 145.67V155.806H416.458L411.682 148.902H411.598V155.806H409.762V145.67H411.405L416.176 152.58H416.265V145.67H418.091ZM423.378 155.955C422.616 155.955 421.958 155.796 421.404 155.48C420.853 155.16 420.429 154.708 420.132 154.124C419.835 153.536 419.686 152.845 419.686 152.05C419.686 151.268 419.835 150.582 420.132 149.991C420.432 149.397 420.851 148.935 421.389 148.605C421.927 148.272 422.559 148.105 423.284 148.105C423.753 148.105 424.195 148.181 424.611 148.333C425.03 148.482 425.399 148.713 425.719 149.026C426.043 149.339 426.297 149.739 426.482 150.224C426.666 150.705 426.759 151.28 426.759 151.946V152.495H420.528V151.288H425.041C425.038 150.945 424.964 150.639 424.819 150.372C424.673 150.102 424.471 149.889 424.21 149.734C423.953 149.579 423.652 149.501 423.309 149.501C422.943 149.501 422.621 149.59 422.344 149.768C422.067 149.943 421.851 150.174 421.696 150.461C421.544 150.745 421.466 151.057 421.463 151.397V152.451C421.463 152.893 421.544 153.272 421.706 153.589C421.867 153.903 422.093 154.143 422.384 154.312C422.674 154.477 423.014 154.559 423.403 154.559C423.664 154.559 423.9 154.523 424.111 154.45C424.322 154.374 424.505 154.264 424.66 154.119C424.815 153.974 424.932 153.794 425.012 153.579L426.685 153.767C426.579 154.209 426.378 154.595 426.081 154.925C425.787 155.252 425.411 155.506 424.952 155.688C424.494 155.866 423.969 155.955 423.378 155.955ZM429.576 148.204L431.11 151.011L432.669 148.204H434.565L432.273 152.005L434.604 155.806H432.719L431.11 153.069L429.517 155.806H427.616L429.932 152.005L427.676 148.204H429.576ZM439.747 148.204V149.59H435.377V148.204H439.747ZM436.455 146.383H438.247V153.52C438.247 153.761 438.283 153.945 438.356 154.074C438.432 154.2 438.531 154.285 438.653 154.332C438.775 154.378 438.91 154.401 439.059 154.401C439.171 154.401 439.273 154.393 439.366 154.376C439.461 154.36 439.534 154.345 439.583 154.332L439.885 155.732C439.79 155.765 439.653 155.801 439.474 155.841C439.3 155.881 439.085 155.904 438.831 155.91C438.382 155.924 437.978 155.856 437.619 155.707C437.259 155.556 436.973 155.321 436.762 155.005C436.554 154.688 436.452 154.292 436.455 153.817V146.383ZM445.323 145.67H447.145V152.797C447.141 153.451 447.003 154.013 446.729 154.485C446.455 154.953 446.072 155.315 445.581 155.569C445.092 155.82 444.523 155.945 443.873 155.945C443.279 155.945 442.745 155.839 442.27 155.628C441.798 155.414 441.423 155.097 441.146 154.678C440.869 154.259 440.73 153.738 440.73 153.114H442.557C442.56 153.388 442.619 153.624 442.735 153.822C442.854 154.02 443.017 154.172 443.225 154.277C443.433 154.383 443.672 154.435 443.942 154.435C444.236 154.435 444.485 154.374 444.69 154.252C444.894 154.127 445.049 153.942 445.155 153.698C445.264 153.454 445.32 153.154 445.323 152.797V145.67ZM454.645 148.457C454.599 148.025 454.404 147.688 454.061 147.447C453.721 147.206 453.279 147.086 452.735 147.086C452.352 147.086 452.024 147.144 451.75 147.259C451.476 147.375 451.266 147.531 451.121 147.729C450.976 147.927 450.902 148.153 450.898 148.407C450.898 148.618 450.946 148.802 451.042 148.957C451.141 149.112 451.275 149.244 451.443 149.353C451.611 149.458 451.798 149.547 452.002 149.62C452.207 149.692 452.413 149.754 452.621 149.803L453.571 150.041C453.954 150.13 454.322 150.25 454.675 150.402C455.031 150.554 455.349 150.745 455.63 150.976C455.914 151.207 456.138 151.486 456.303 151.812C456.468 152.139 456.55 152.522 456.55 152.961C456.55 153.555 456.399 154.077 456.095 154.53C455.792 154.978 455.353 155.33 454.779 155.584C454.208 155.834 453.517 155.96 452.705 155.96C451.916 155.96 451.232 155.838 450.651 155.594C450.074 155.349 449.622 154.993 449.295 154.525C448.972 154.056 448.797 153.485 448.77 152.812H450.577C450.603 153.165 450.712 153.459 450.903 153.693C451.095 153.927 451.344 154.102 451.651 154.218C451.961 154.333 452.307 154.391 452.69 154.391C453.089 154.391 453.439 154.332 453.739 154.213C454.043 154.091 454.28 153.922 454.452 153.708C454.624 153.49 454.711 153.236 454.714 152.946C454.711 152.682 454.633 152.464 454.482 152.292C454.33 152.118 454.117 151.972 453.843 151.857C453.573 151.738 453.256 151.633 452.893 151.54L451.74 151.243C450.905 151.029 450.245 150.704 449.76 150.268C449.278 149.829 449.038 149.247 449.038 148.521C449.038 147.924 449.199 147.401 449.523 146.952C449.849 146.504 450.293 146.155 450.854 145.908C451.415 145.657 452.05 145.532 452.759 145.532C453.479 145.532 454.109 145.657 454.65 145.908C455.194 146.155 455.622 146.5 455.932 146.942C456.242 147.381 456.402 147.886 456.412 148.457H454.645Z" fill="white"/>
<rect x="362.197" y="198.888" width="140.175" height="72.3536" rx="6.96848" fill="#10132E"/>
<path d="M393.906 240.355V230.219H397.707C398.486 230.219 399.139 230.364 399.667 230.654C400.198 230.945 400.599 231.344 400.869 231.852C401.143 232.357 401.28 232.931 401.28 233.574C401.28 234.224 401.143 234.802 400.869 235.307C400.596 235.811 400.191 236.209 399.657 236.499C399.122 236.786 398.464 236.93 397.682 236.93H395.163V235.42H397.435C397.89 235.42 398.263 235.341 398.553 235.183C398.844 235.024 399.058 234.807 399.197 234.53C399.339 234.252 399.409 233.934 399.409 233.574C399.409 233.215 399.339 232.898 399.197 232.624C399.058 232.35 398.842 232.137 398.548 231.986C398.258 231.831 397.883 231.753 397.425 231.753H395.742V240.355H393.906ZM406.003 240.503C405.261 240.503 404.617 240.34 404.073 240.013C403.528 239.687 403.106 239.23 402.806 238.642C402.509 238.055 402.36 237.369 402.36 236.583C402.36 235.798 402.509 235.11 402.806 234.52C403.106 233.929 403.528 233.47 404.073 233.144C404.617 232.817 405.261 232.654 406.003 232.654C406.745 232.654 407.389 232.817 407.933 233.144C408.478 233.47 408.898 233.929 409.195 234.52C409.496 235.11 409.646 235.798 409.646 236.583C409.646 237.369 409.496 238.055 409.195 238.642C408.898 239.23 408.478 239.687 407.933 240.013C407.389 240.34 406.745 240.503 406.003 240.503ZM406.013 239.068C406.415 239.068 406.752 238.957 407.023 238.736C407.293 238.512 407.494 238.212 407.626 237.836C407.762 237.459 407.829 237.04 407.829 236.578C407.829 236.113 407.762 235.693 407.626 235.316C407.494 234.937 407.293 234.635 407.023 234.411C406.752 234.186 406.415 234.074 406.013 234.074C405.601 234.074 405.257 234.186 404.984 234.411C404.713 234.635 404.51 234.937 404.375 235.316C404.243 235.693 404.177 236.113 404.177 236.578C404.177 237.04 404.243 237.459 404.375 237.836C404.51 238.212 404.713 238.512 404.984 238.736C405.257 238.957 405.601 239.068 406.013 239.068ZM417.175 234.762L415.541 234.94C415.495 234.775 415.414 234.62 415.299 234.475C415.187 234.33 415.035 234.213 414.844 234.124C414.652 234.035 414.418 233.99 414.141 233.99C413.768 233.99 413.454 234.071 413.2 234.233C412.95 234.394 412.826 234.604 412.829 234.861C412.826 235.082 412.907 235.262 413.072 235.401C413.24 235.539 413.517 235.653 413.903 235.742L415.2 236.019C415.919 236.174 416.454 236.42 416.803 236.757C417.156 237.093 417.335 237.534 417.338 238.078C417.335 238.557 417.194 238.979 416.917 239.345C416.643 239.708 416.262 239.992 415.774 240.196C415.286 240.401 414.725 240.503 414.091 240.503C413.161 240.503 412.412 240.309 411.844 239.919C411.277 239.527 410.939 238.981 410.83 238.281L412.577 238.113C412.656 238.456 412.824 238.715 413.082 238.89C413.339 239.065 413.674 239.152 414.086 239.152C414.512 239.152 414.853 239.065 415.111 238.89C415.371 238.715 415.502 238.499 415.502 238.241C415.502 238.024 415.418 237.844 415.249 237.702C415.084 237.56 414.827 237.451 414.477 237.375L413.181 237.103C412.451 236.951 411.912 236.696 411.562 236.336C411.212 235.973 411.039 235.514 411.043 234.96C411.039 234.492 411.166 234.086 411.424 233.743C411.684 233.396 412.046 233.129 412.508 232.941C412.973 232.749 413.509 232.654 414.116 232.654C415.007 232.654 415.708 232.843 416.219 233.223C416.734 233.602 417.053 234.115 417.175 234.762ZM422.611 232.753V234.139H418.241V232.753H422.611ZM419.32 230.931H421.112V238.068C421.112 238.309 421.148 238.494 421.221 238.623C421.296 238.748 421.395 238.834 421.518 238.88C421.64 238.926 421.775 238.949 421.923 238.949C422.036 238.949 422.138 238.941 422.23 238.924C422.326 238.908 422.399 238.893 422.448 238.88L422.75 240.28C422.654 240.313 422.517 240.35 422.339 240.389C422.164 240.429 421.95 240.452 421.696 240.459C421.247 240.472 420.843 240.404 420.483 240.256C420.124 240.104 419.838 239.87 419.627 239.553C419.419 239.236 419.317 238.84 419.32 238.365V230.931ZM427.334 243.364C426.691 243.364 426.138 243.276 425.676 243.102C425.214 242.93 424.843 242.699 424.563 242.409C424.282 242.118 424.087 241.797 423.979 241.444L425.592 241.053C425.665 241.201 425.77 241.348 425.909 241.493C426.047 241.642 426.234 241.764 426.468 241.859C426.706 241.958 427.004 242.008 427.364 242.008C427.872 242.008 428.293 241.884 428.626 241.637C428.959 241.392 429.126 240.99 429.126 240.429V238.989H429.037C428.944 239.174 428.809 239.363 428.631 239.558C428.456 239.753 428.223 239.916 427.933 240.048C427.646 240.18 427.285 240.246 426.849 240.246C426.265 240.246 425.736 240.109 425.26 239.835C424.789 239.558 424.412 239.145 424.132 238.598C423.855 238.047 423.716 237.357 423.716 236.529C423.716 235.694 423.855 234.99 424.132 234.416C424.412 233.838 424.79 233.401 425.265 233.104C425.74 232.804 426.27 232.654 426.854 232.654C427.299 232.654 427.666 232.73 427.953 232.881C428.243 233.03 428.474 233.21 428.646 233.421C428.817 233.629 428.948 233.825 429.037 234.01H429.136V232.753H430.902V240.478C430.902 241.128 430.747 241.666 430.437 242.092C430.127 242.518 429.703 242.836 429.165 243.047C428.628 243.258 428.017 243.364 427.334 243.364ZM427.349 238.84C427.728 238.84 428.052 238.748 428.319 238.563C428.586 238.378 428.789 238.113 428.928 237.766C429.066 237.42 429.136 237.004 429.136 236.519C429.136 236.041 429.066 235.622 428.928 235.262C428.792 234.902 428.591 234.624 428.324 234.426C428.06 234.224 427.735 234.124 427.349 234.124C426.95 234.124 426.616 234.228 426.349 234.435C426.082 234.643 425.881 234.929 425.745 235.292C425.61 235.651 425.543 236.06 425.543 236.519C425.543 236.984 425.61 237.392 425.745 237.742C425.884 238.088 426.087 238.359 426.354 238.553C426.625 238.745 426.956 238.84 427.349 238.84ZM432.739 240.355V232.753H434.476V234.02H434.555C434.694 233.581 434.931 233.243 435.268 233.005C435.608 232.764 435.995 232.644 436.431 232.644C436.53 232.644 436.64 232.649 436.762 232.659C436.888 232.665 436.992 232.677 437.074 232.693V234.341C436.998 234.315 436.878 234.292 436.713 234.272C436.551 234.249 436.394 234.238 436.243 234.238C435.916 234.238 435.622 234.308 435.362 234.45C435.104 234.589 434.901 234.782 434.753 235.029C434.605 235.277 434.53 235.562 434.53 235.886V240.355H432.739ZM441.317 240.503C440.555 240.503 439.896 240.345 439.342 240.028C438.791 239.708 438.367 239.256 438.07 238.672C437.773 238.085 437.625 237.393 437.625 236.598C437.625 235.816 437.773 235.13 438.07 234.539C438.37 233.946 438.789 233.484 439.327 233.154C439.865 232.82 440.497 232.654 441.223 232.654C441.691 232.654 442.133 232.73 442.549 232.881C442.968 233.03 443.338 233.261 443.658 233.574C443.981 233.888 444.235 234.287 444.42 234.772C444.605 235.254 444.697 235.828 444.697 236.494V237.044H438.466V235.836H442.98C442.977 235.493 442.902 235.188 442.757 234.921C442.612 234.65 442.409 234.437 442.148 234.282C441.891 234.127 441.591 234.049 441.248 234.049C440.881 234.049 440.56 234.139 440.282 234.317C440.005 234.492 439.789 234.723 439.634 235.01C439.482 235.293 439.405 235.605 439.402 235.945V236.999C439.402 237.441 439.482 237.821 439.644 238.137C439.806 238.451 440.032 238.692 440.322 238.86C440.612 239.025 440.952 239.108 441.342 239.108C441.602 239.108 441.838 239.071 442.049 238.999C442.261 238.923 442.444 238.812 442.599 238.667C442.754 238.522 442.871 238.342 442.95 238.128L444.623 238.316C444.517 238.758 444.316 239.144 444.019 239.474C443.725 239.8 443.349 240.054 442.891 240.236C442.432 240.414 441.907 240.503 441.317 240.503ZM451.801 233.005C451.754 232.573 451.56 232.236 451.217 231.996C450.877 231.755 450.435 231.634 449.89 231.634C449.507 231.634 449.179 231.692 448.905 231.807C448.631 231.923 448.422 232.08 448.277 232.278C448.132 232.476 448.057 232.702 448.054 232.956C448.054 233.167 448.102 233.35 448.198 233.505C448.296 233.66 448.43 233.792 448.598 233.901C448.767 234.007 448.953 234.096 449.158 234.168C449.362 234.241 449.568 234.302 449.776 234.351L450.727 234.589C451.109 234.678 451.477 234.798 451.83 234.95C452.187 235.102 452.505 235.293 452.785 235.524C453.069 235.755 453.294 236.034 453.459 236.361C453.623 236.687 453.706 237.07 453.706 237.509C453.706 238.103 453.554 238.626 453.251 239.078C452.947 239.527 452.508 239.878 451.934 240.132C451.363 240.383 450.672 240.508 449.86 240.508C449.072 240.508 448.387 240.386 447.807 240.142C447.229 239.898 446.777 239.541 446.45 239.073C446.127 238.604 445.952 238.034 445.926 237.36H447.732C447.759 237.714 447.868 238.007 448.059 238.241C448.25 238.476 448.499 238.651 448.806 238.766C449.116 238.882 449.463 238.939 449.846 238.939C450.245 238.939 450.595 238.88 450.895 238.761C451.198 238.639 451.436 238.471 451.608 238.256C451.779 238.039 451.867 237.784 451.87 237.494C451.867 237.23 451.789 237.012 451.637 236.841C451.485 236.666 451.273 236.521 450.999 236.405C450.728 236.286 450.411 236.181 450.049 236.089L448.895 235.792C448.061 235.577 447.401 235.252 446.916 234.817C446.434 234.378 446.193 233.795 446.193 233.07C446.193 232.472 446.355 231.949 446.678 231.501C447.005 231.052 447.449 230.704 448.009 230.456C448.57 230.206 449.205 230.08 449.915 230.08C450.634 230.08 451.264 230.206 451.805 230.456C452.35 230.704 452.777 231.049 453.087 231.491C453.397 231.93 453.557 232.434 453.567 233.005H451.801ZM459.119 236.95H460.782L461.767 238.227L462.47 239.058L464.157 241.226H462.376L461.228 239.771L460.738 239.078L459.119 236.95ZM464.4 235.287C464.4 236.379 464.195 237.314 463.786 238.093C463.38 238.868 462.826 239.462 462.123 239.875C461.424 240.287 460.63 240.493 459.743 240.493C458.855 240.493 458.06 240.287 457.357 239.875C456.658 239.459 456.103 238.863 455.694 238.088C455.288 237.309 455.086 236.376 455.086 235.287C455.086 234.195 455.288 233.261 455.694 232.485C456.103 231.707 456.658 231.111 457.357 230.699C458.06 230.286 458.855 230.08 459.743 230.08C460.63 230.08 461.424 230.286 462.123 230.699C462.826 231.111 463.38 231.707 463.786 232.485C464.195 233.261 464.4 234.195 464.4 235.287ZM462.554 235.287C462.554 234.518 462.433 233.87 462.193 233.342C461.955 232.81 461.625 232.41 461.203 232.139C460.78 231.865 460.294 231.728 459.743 231.728C459.192 231.728 458.705 231.865 458.283 232.139C457.86 232.41 457.529 232.81 457.288 233.342C457.05 233.87 456.932 234.518 456.932 235.287C456.932 236.056 457.05 236.706 457.288 237.237C457.529 237.765 457.86 238.166 458.283 238.439C458.705 238.71 459.192 238.845 459.743 238.845C460.294 238.845 460.78 238.71 461.203 238.439C461.625 238.166 461.955 237.765 462.193 237.237C462.433 236.706 462.554 236.056 462.554 235.287ZM466.15 240.355V230.219H467.986V238.816H472.45V240.355H466.15Z" fill="white"/>
</g>
</g>
<rect x="0.5" y="0.5" width="522" height="256.5" rx="23.5" stroke="url(#paint1_linear_2065_3472)"/>
<defs>
<linearGradient id="paint0_linear_2065_3472" x1="108.452" y1="1" x2="447.502" y2="165.672" gradientUnits="userSpaceOnUse">
<stop stop-color="#04071D"/>
<stop offset="1" stop-color="#0C0E23"/>
</linearGradient>
<linearGradient id="paint1_linear_2065_3472" x1="261.5" y1="1" x2="261.5" y2="256.5" gradientUnits="userSpaceOnUse">
<stop stop-color="#363749" stop-opacity="0.43"/>
<stop offset="1" stop-color="#363749" stop-opacity="0.49"/>
</linearGradient>
<clipPath id="clip0_2065_3472">
<rect x="1" y="1" width="521" height="255.5" rx="23" fill="white"/>
</clipPath>
<clipPath id="clip1_2065_3472">
<rect width="140.175" height="295.006" fill="white" transform="translate(212.375 -18.7529)"/>
</clipPath>
<clipPath id="clip2_2065_3472">
<rect width="140.175" height="295.006" fill="white" transform="translate(362.197 -18.7529)"/>
</clipPath>
</defs>
</svg>
