<svg width="1260" height="1113" viewBox="0 0 1260 1113" fill="none" xmlns="http://www.w3.org/2000/svg">
<mask id="mask0_2164_2" style="mask-type:luminance" maskUnits="userSpaceOnUse" x="0" y="0" width="1260" height="1113">
<path d="M0 -3.8147e-06H1259.87V1112.29H0V-3.8147e-06Z" fill="white"/>
</mask>
<g mask="url(#mask0_2164_2)">
<path d="M308.031 752.226H215.452V848.959H308.031V752.226Z" fill="url(#paint0_radial_2164_2)" fill-opacity="0.06"/>
<path d="M678.346 462.026H585.767V558.759H678.346V462.026Z" fill="url(#paint1_radial_2164_2)" fill-opacity="0.06"/>
<path d="M585.767 1042.42H493.188V1139.16H585.767V1042.42Z" fill="url(#paint2_radial_2164_2)" fill-opacity="0.06"/>
<path d="M956.083 848.959H863.504V945.691H956.083V848.959Z" fill="url(#paint3_radial_2164_2)" fill-opacity="0.06"/>
<path d="M678.346 752.226H585.767V848.959H678.346V752.226Z" fill="url(#paint4_radial_2164_2)" fill-opacity="0.06"/>
<path d="M30.2929 75.0948H-62.2861V171.828M30.2929 75.0948V171.828M30.2929 75.0948H122.872M-62.2861 171.828H30.2929M-62.2861 171.828V268.56M30.2929 171.828H122.872M30.2929 171.828V268.56M122.872 75.0948V171.828M122.872 75.0948H215.451M122.872 171.828H215.451M122.872 171.828V268.56M30.2929 268.56H-62.2861M30.2929 268.56H122.872M30.2929 268.56V365.294M-62.2861 268.56V365.294M215.451 75.0948V171.828M215.451 75.0948H308.03M215.451 171.828H308.03M215.451 171.828V268.56M122.872 268.56H215.451M122.872 268.56V365.294M308.03 75.0948V171.828M308.03 75.0948H400.609M308.03 171.828H400.609M308.03 171.828V268.56M215.451 268.56H308.03M215.451 268.56V365.294M400.609 75.0948V171.828M400.609 75.0948H493.188M400.609 171.828H493.188M400.609 171.828V268.56M308.03 268.56H400.609M308.03 268.56V365.294M493.188 75.0948V171.828M493.188 75.0948H585.767M493.188 171.828H585.767M493.188 171.828V268.56M400.609 268.56H493.188M400.609 268.56V365.294M585.767 75.0948V171.828M585.767 75.0948H678.346M585.767 171.828H678.346M585.767 171.828V268.56M493.188 268.56H585.767M493.188 268.56V365.294M678.346 75.0948V171.828M678.346 75.0948H770.925M678.346 171.828H770.925M678.346 171.828V268.56M585.767 268.56H678.346M585.767 268.56V365.294M770.925 75.0948V171.828M770.925 75.0948H863.504M770.925 171.828H863.504M770.925 171.828V268.56M678.346 268.56H770.925M678.346 268.56V365.294M863.504 75.0948V171.828M863.504 75.0948H956.083M863.504 171.828H956.083M863.504 171.828V268.56M770.925 268.56H863.504M770.925 268.56V365.294M956.083 75.0948V171.828M956.083 75.0948H1048.66M956.083 171.828H1048.66M956.083 171.828V268.56M863.504 268.56H956.083M863.504 268.56V365.294M1048.66 75.0948V171.828M1048.66 75.0948H1141.24M1048.66 171.828H1141.24M1048.66 171.828V268.56M956.083 268.56H1048.66M956.083 268.56V365.294M1141.24 75.0948V171.828M1141.24 75.0948H1233.82M1141.24 171.828H1233.82M1141.24 171.828V268.56M1048.66 268.56H1141.24M1048.66 268.56V365.294M1233.82 75.0948V171.828M1233.82 75.0948H1326.4V171.828M1233.82 171.828H1326.4M1233.82 171.828V268.56M1141.24 268.56H1233.82M1141.24 268.56V365.294M1326.4 171.828V268.56M1233.82 268.56H1326.4M1233.82 268.56V365.294M1326.4 268.56V365.294M30.2929 365.294H-62.2861M30.2929 365.294H122.872M30.2929 365.294V462.026M-62.2861 365.294V462.026M122.872 365.294H215.451M122.872 365.294V462.026M215.451 365.294H308.03M215.451 365.294V462.026M308.03 365.294H400.609M308.03 365.294V462.026M400.609 365.294H493.188M400.609 365.294V462.026M493.188 365.294H585.767M493.188 365.294V462.026M585.767 365.294H678.346M585.767 365.294V462.026M678.346 365.294H770.925M678.346 365.294V462.026M770.925 365.294H863.504M770.925 365.294V462.026M863.504 365.294H956.083M863.504 365.294V462.026M956.083 365.294H1048.66M956.083 365.294V462.026M1048.66 365.294H1141.24M1048.66 365.294V462.026M1141.24 365.294H1233.82M1141.24 365.294V462.026M1233.82 365.294H1326.4M1233.82 365.294V462.026M1326.4 365.294V462.026M30.2929 462.026H-62.2861M30.2929 462.026H122.872M30.2929 462.026V558.76M-62.2861 462.026V558.76M122.872 462.026H215.451M122.872 462.026V558.76M215.451 462.026H308.03M215.451 462.026V558.76M308.03 462.026H400.609M308.03 462.026V558.76M400.609 462.026H493.188M400.609 462.026V558.76M493.188 462.026H585.767M493.188 462.026V558.76M585.767 462.026H678.346M585.767 462.026V558.76M678.346 462.026H770.925M678.346 462.026V558.76M770.925 462.026H863.504M770.925 462.026V558.76M863.504 462.026H956.083M863.504 462.026V558.76M956.083 462.026H1048.66M956.083 462.026V558.76M1048.66 462.026H1141.24M1048.66 462.026V558.76M1141.24 462.026H1233.82M1141.24 462.026V558.76M1233.82 462.026H1326.4M1233.82 462.026V558.76M1326.4 462.026V558.76M30.2929 558.76H-62.2861M30.2929 558.76H122.872M30.2929 558.76V655.493M-62.2861 558.76V655.493M122.872 558.76H215.451M122.872 558.76V655.493M215.451 558.76H308.03M215.451 558.76V655.493M308.03 558.76H400.609M308.03 558.76V655.493M400.609 558.76H493.188M400.609 558.76V655.493M493.188 558.76H585.767M493.188 558.76V655.493M585.767 558.76H678.346M585.767 558.76V655.493M678.346 558.76H770.925M678.346 558.76V655.493M770.925 558.76H863.504M770.925 558.76V655.493M863.504 558.76H956.083M863.504 558.76V655.493M956.083 558.76H1048.66M956.083 558.76V655.493M1048.66 558.76H1141.24M1048.66 558.76V655.493M1141.24 558.76H1233.82M1141.24 558.76V655.493M1233.82 558.76H1326.4M1233.82 558.76V655.493M1326.4 558.76V655.493M30.2929 655.493H-62.2861M30.2929 655.493H122.872M30.2929 655.493V752.225M-62.2861 655.493V752.225M122.872 655.493H215.451M122.872 655.493V752.225M215.451 655.493H308.03M215.451 655.493V752.225M308.03 655.493H400.609M308.03 655.493V752.225M400.609 655.493H493.188M400.609 655.493V752.225M493.188 655.493H585.767M493.188 655.493V752.225M585.767 655.493H678.346M585.767 655.493V752.225M678.346 655.493H770.925M678.346 655.493V752.225M770.925 655.493H863.504M770.925 655.493V752.225M863.504 655.493H956.083M863.504 655.493V752.225M956.083 655.493H1048.66M956.083 655.493V752.225M1048.66 655.493H1141.24M1048.66 655.493V752.225M1141.24 655.493H1233.82M1141.24 655.493V752.225M1233.82 655.493H1326.4M1233.82 655.493V752.225M1326.4 655.493V752.225M30.2929 752.225H-62.2861M30.2929 752.225H122.872M30.2929 752.225V848.959M-62.2861 752.225V848.959M122.872 752.225H215.451M122.872 752.225V848.959M215.451 752.225H308.03M215.451 752.225V848.959M308.03 752.225H400.609M308.03 752.225V848.959M400.609 752.225H493.188M400.609 752.225V848.959M493.188 752.225H585.767M493.188 752.225V848.959M585.767 752.225H678.346M585.767 752.225V848.959M678.346 752.225H770.925M678.346 752.225V848.959M770.925 752.225H863.504M770.925 752.225V848.959M863.504 752.225H956.083M863.504 752.225V848.959M956.083 752.225H1048.66M956.083 752.225V848.959M1048.66 752.225H1141.24M1048.66 752.225V848.959M1141.24 752.225H1233.82M1141.24 752.225V848.959M1233.82 752.225H1326.4M1233.82 752.225V848.959M1326.4 752.225V848.959M30.2929 848.959H-62.2861M30.2929 848.959H122.872M30.2929 848.959V945.691M-62.2861 848.959V945.691M122.872 848.959H215.451M122.872 848.959V945.691M215.451 848.959H308.03M215.451 848.959V945.691M308.03 848.959H400.609M308.03 848.959V945.691M400.609 848.959H493.188M400.609 848.959V945.691M493.188 848.959H585.767M493.188 848.959V945.691M585.767 848.959H678.346M585.767 848.959V945.691M678.346 848.959H770.925M678.346 848.959V945.691M770.925 848.959H863.504M770.925 848.959V945.691M863.504 848.959H956.083M863.504 848.959V945.691M956.083 848.959H1048.66M956.083 848.959V945.691M1048.66 848.959H1141.24M1048.66 848.959V945.691M1141.24 848.959H1233.82M1141.24 848.959V945.691M1233.82 848.959H1326.4M1233.82 848.959V945.691M1326.4 848.959V945.691M30.2929 945.691H-62.2861M30.2929 945.691H122.872M30.2929 945.691V1042.42M-62.2861 945.691V1042.42M122.872 945.691H215.451M122.872 945.691V1042.42M215.451 945.691H308.03M215.451 945.691V1042.42M308.03 945.691H400.609M308.03 945.691V1042.42M400.609 945.691H493.188M400.609 945.691V1042.42M493.188 945.691H585.767M493.188 945.691V1042.42M585.767 945.691H678.346M585.767 945.691V1042.42M678.346 945.691H770.925M678.346 945.691V1042.42M770.925 945.691H863.504M770.925 945.691V1042.42M863.504 945.691H956.083M863.504 945.691V1042.42M956.083 945.691H1048.66M956.083 945.691V1042.42M1048.66 945.691H1141.24M1048.66 945.691V1042.42M1141.24 945.691H1233.82M1141.24 945.691V1042.42M1233.82 945.691H1326.4M1233.82 945.691V1042.42M1326.4 945.691V1042.42M30.2929 1042.42H-62.2861M30.2929 1042.42H122.872M30.2929 1042.42V1139.16M-62.2861 1042.42V1139.16M122.872 1042.42V1139.16M122.872 1042.42H169.161H215.451M215.451 1042.42H308.03M215.451 1042.42V1139.16M308.03 1042.42H400.609M308.03 1042.42V1139.16M400.609 1042.42H493.188M400.609 1042.42V1139.16M493.188 1042.42H585.767M493.188 1042.42V1139.16M585.767 1042.42H678.346M585.767 1042.42V1139.16M678.346 1042.42H770.925M678.346 1042.42V1139.16M770.925 1042.42H863.504M770.925 1042.42V1139.16M863.504 1042.42H956.083M863.504 1042.42V1139.16M956.083 1042.42H1048.66M956.083 1042.42V1139.16M1048.66 1042.42H1141.24M1048.66 1042.42V1139.16M1141.24 1042.42H1233.82M1141.24 1042.42V1139.16M1233.82 1042.42H1326.4M1233.82 1042.42V1139.16M1326.4 1042.42V1139.16M30.2929 1139.16H-62.2861M30.2929 1139.16H122.872M30.2929 1139.16V1235.89M-62.2861 1139.16V1235.89M122.872 1139.16H215.451M122.872 1139.16V1235.89M215.451 1139.16H308.03M215.451 1139.16V1235.89M308.03 1139.16H400.609M308.03 1139.16V1235.89M400.609 1139.16H493.188M400.609 1139.16V1235.89M493.188 1139.16H585.767M493.188 1139.16V1235.89M585.767 1139.16H678.346M585.767 1139.16V1235.89M678.346 1139.16H770.925M678.346 1139.16V1235.89M770.925 1139.16H863.504M770.925 1139.16V1235.89M863.504 1139.16H956.083M863.504 1139.16V1235.89M956.083 1139.16H1048.66M956.083 1139.16V1235.89M1048.66 1139.16H1141.24M1048.66 1139.16V1235.89M1141.24 1139.16H1233.82M1141.24 1139.16V1235.89M1233.82 1139.16H1326.4M1233.82 1139.16V1235.89M1326.4 1139.16V1235.89M30.2929 1235.89H-62.2861M30.2929 1235.89H122.872M30.2929 1235.89V1332.62M-62.2861 1235.89V1332.62M122.872 1235.89H215.451M122.872 1235.89V1332.62M215.451 1235.89H308.03M215.451 1235.89V1332.62M308.03 1235.89H400.609M308.03 1235.89V1332.62M400.609 1235.89H493.188M400.609 1235.89V1332.62M493.188 1235.89H585.767M493.188 1235.89V1332.62M585.767 1235.89H678.346M585.767 1235.89V1332.62M678.346 1235.89H770.925M678.346 1235.89V1332.62M770.925 1235.89H863.504M770.925 1235.89V1332.62M863.504 1235.89H956.083M863.504 1235.89V1332.62M956.083 1235.89H1048.66M956.083 1235.89V1332.62M1048.66 1235.89H1141.24M1048.66 1235.89V1332.62M1141.24 1235.89H1233.82M1141.24 1235.89V1332.62M1233.82 1235.89H1326.4M1233.82 1235.89V1332.62M1326.4 1235.89V1332.62M30.2929 1332.62H-62.2861M30.2929 1332.62H122.872M30.2929 1332.62V1429.36M-62.2861 1332.62V1429.36M122.872 1332.62H215.451M122.872 1332.62V1429.36M215.451 1332.62H308.03M215.451 1332.62V1429.36M308.03 1332.62H400.609M308.03 1332.62V1429.36M400.609 1332.62H493.188M400.609 1332.62V1429.36M493.188 1332.62H585.767M493.188 1332.62V1429.36M585.767 1332.62H678.346M585.767 1332.62V1429.36M678.346 1332.62H770.925M678.346 1332.62V1429.36M770.925 1332.62H863.504M770.925 1332.62V1429.36M863.504 1332.62H956.083M863.504 1332.62V1429.36M956.083 1332.62H1048.66M956.083 1332.62V1429.36M1048.66 1332.62H1141.24M1048.66 1332.62V1429.36M1141.24 1332.62H1233.82M1141.24 1332.62V1429.36M1233.82 1332.62H1326.4M1233.82 1332.62V1429.36M1326.4 1332.62V1429.36M30.2929 1429.36H-62.2861M30.2929 1429.36H122.872M30.2929 1429.36V1526.09M-62.2861 1429.36V1526.09H30.2929M122.872 1429.36H215.451M122.872 1429.36V1526.09M215.451 1429.36H308.03M215.451 1429.36V1526.09M308.03 1429.36H400.609M308.03 1429.36V1526.09M400.609 1429.36H493.188M400.609 1429.36V1526.09M493.188 1429.36H585.767M493.188 1429.36V1526.09M585.767 1429.36H678.346M585.767 1429.36V1526.09M678.346 1429.36H770.925M678.346 1429.36V1526.09M770.925 1429.36H863.504M770.925 1429.36V1526.09M863.504 1429.36H956.083M863.504 1429.36V1526.09M956.083 1429.36H1048.66M956.083 1429.36V1526.09M1048.66 1429.36H1141.24M1048.66 1429.36V1526.09M1141.24 1429.36H1233.82M1141.24 1429.36V1526.09M1233.82 1429.36H1326.4M1233.82 1429.36V1526.09M1326.4 1429.36V1526.09H1233.82M30.2929 1526.09H122.872M122.872 1526.09H215.451M215.451 1526.09H308.03M308.03 1526.09H400.609M400.609 1526.09H493.188M493.188 1526.09H585.767M585.767 1526.09H678.346M678.346 1526.09H770.925M770.925 1526.09H863.504M863.504 1526.09H956.083M956.083 1526.09H1048.66M1048.66 1526.09H1141.24M1141.24 1526.09H1233.82" stroke="url(#paint5_radial_2164_2)" stroke-opacity="0.2"/>
</g>
<defs>
<radialGradient id="paint0_radial_2164_2" cx="0" cy="0" r="1" gradientUnits="userSpaceOnUse" gradientTransform="translate(263.361 851.257) rotate(90.6772) scale(68.5643 119.024)">
<stop stop-color="white" stop-opacity="0.8"/>
<stop offset="1" stop-color="#05041F"/>
</radialGradient>
<radialGradient id="paint1_radial_2164_2" cx="0" cy="0" r="1" gradientUnits="userSpaceOnUse" gradientTransform="translate(632.686 560.084) rotate(90) scale(72.7917 126.361)">
<stop stop-color="white" stop-opacity="0.8"/>
<stop offset="1" stop-color="#05041F"/>
</radialGradient>
<radialGradient id="paint2_radial_2164_2" cx="0" cy="0" r="1" gradientUnits="userSpaceOnUse" gradientTransform="translate(539.591 1137.35) rotate(91.9816) scale(70.2943 122.039)">
<stop stop-color="white" stop-opacity="0.8"/>
<stop offset="1" stop-color="#05041F"/>
</radialGradient>
<radialGradient id="paint3_radial_2164_2" cx="0" cy="0" r="1" gradientUnits="userSpaceOnUse" gradientTransform="translate(912.224 946.901) rotate(90.677) scale(68.5644 119.024)">
<stop stop-color="white" stop-opacity="0.8"/>
<stop offset="1" stop-color="#05041F"/>
</radialGradient>
<radialGradient id="paint4_radial_2164_2" cx="0" cy="0" r="1" gradientUnits="userSpaceOnUse" gradientTransform="translate(632.751 849.564) rotate(90) scale(74.4844 129.299)">
<stop stop-color="white" stop-opacity="0.8"/>
<stop offset="1" stop-color="#05041F"/>
</radialGradient>
<radialGradient id="paint5_radial_2164_2" cx="0" cy="0" r="1" gradientUnits="userSpaceOnUse" gradientTransform="translate(632.831 801.198) rotate(90) scale(513.773 491.711)">
<stop stop-color="white"/>
<stop offset="1" stop-color="white" stop-opacity="0"/>
</radialGradient>
</defs>
</svg>
