<svg width="123" height="87" viewBox="0 0 123 87" fill="none" xmlns="http://www.w3.org/2000/svg">
<path fill-rule="evenodd" clip-rule="evenodd" d="M40.3837 4.99199C38.6747 7.64539 37.8877 10.9734 37.1232 14.1889C36.561 16.4826 34.9645 24.3753 34.7846 30.2442C34.4398 30.3192 34.0875 30.3942 33.7277 30.4691C32.2661 30.7839 30.737 31.2337 29.2979 31.7508C29.0131 31.8558 28.7357 31.9607 28.4659 32.0657C28.2111 32.1706 27.9562 32.2755 27.7014 32.3805C27.2516 32.5828 26.8244 32.7852 26.4421 32.9876L26.4196 33.0101H26.3971C25.8575 33.3249 24.2385 34.4717 20.9105 38.7216L20.888 38.7441L20.8655 38.7666C17.7174 42.7917 13.9622 48.3233 9.75719 55.2492C0.650185 70.2026 -0.159325 75.7343 0.0205688 78.6126V78.635C0.0355606 78.785 0.0505524 78.9199 0.0655441 79.0398C0.470299 82.5027 3.1012 84.9537 7.17125 85.6508C9.86962 86.5278 13.2201 87 16.9079 87C18.347 87 19.8536 86.91 21.3827 86.7751C22.1697 86.7077 23.0916 86.6177 24.1035 86.5278C33.5478 85.6958 51.2896 84.2791 51.4695 84.2567L52.2116 84.1892L52.8187 83.7395C62.5104 76.3414 63.0051 74.9473 63.2524 74.2727L64.3992 71.1246L61.0487 70.8547C60.9588 70.8547 51.5595 70.1127 35.9989 68.0439C35.4817 67.9765 34.7171 67.954 33.7502 67.954C31.9963 67.954 28.8931 68.0664 25.4527 68.4712C25.7375 68.3662 26.0299 68.2763 26.3297 68.2013C28.6683 67.5268 30.6921 65.9977 32.0413 63.9289C34.6497 59.8589 36.1113 56.7108 36.516 54.3047C36.606 53.7426 36.8758 52.0786 35.8414 46.2996C35.9164 46.2996 35.9839 46.2996 36.0438 46.2996C36.8309 46.3895 37.7978 46.4795 38.8546 46.4795C45.6006 46.4795 50.3902 42.297 53.4708 33.7072C55.8994 26.8713 58.6202 22.5539 61.5434 20.8674C62.5553 20.2828 63.882 19.9904 65.4786 19.9904C65.8384 19.9904 66.2056 20.0054 66.5804 20.0354C67.5248 20.1029 68.3793 20.2603 69.0764 20.4177C68.1545 21.4521 67.5023 22.7563 67.2775 24.1954C66.9402 26.6464 66.378 28.8726 65.8608 30.0644C65.2987 31.3011 64.9614 32.4254 64.6691 33.4148C64.1519 35.1463 63.8371 36.0907 62.8926 36.9452C60.0818 39.5311 57.9681 40.8578 56.5739 40.8578C56.2366 40.8578 55.9218 40.7904 55.4496 40.633L51.0648 39.1489L52.1441 43.6462C52.2341 43.961 53.0211 46.8392 56.7763 47.8511H56.7988C57.8107 48.121 58.8451 48.2559 59.857 48.2559C59.9469 48.2559 60.4416 48.2784 62.9826 48.4358C64.8489 48.5707 66.2881 50.0548 66.378 51.8987C66.9177 64.4911 66.3555 67.999 66.1307 68.8534C65.636 69.9778 61.8583 77.6681 60.3517 80.299C59.9244 81.0636 59.4522 81.8281 58.935 82.6376L56.4615 86.5503H71.9771L72.1346 84.1442C72.1346 84.1217 72.2695 82.098 72.4044 79.1073C76.1596 82.1654 79.0379 84.459 79.0829 84.504L80.2297 85.4259L81.6238 84.8863C81.7587 84.8188 85.1542 83.4696 88.5721 81.9406C90.6184 80.9961 92.2599 80.1866 93.4067 79.512C94.7334 78.77 97.1619 77.3758 96.5548 75.0147C96.1501 73.3732 90.2361 64.0638 88.4147 61.2306C86.0087 57.4753 80.0498 48.3458 76.8342 44.6581C75.4625 43.1065 74.0684 41.7573 72.5843 40.5655C74.2033 38.3619 75.3951 36.1357 76.1596 34.4492C77.9585 30.5815 79.2628 23.8581 78.3183 20.665V20.6201L78.2958 20.5976C78.2958 20.5976 78.2284 20.3502 78.071 19.923C77.7337 19.001 77.3514 18.0791 76.9691 17.2021C75.9348 14.841 74.5181 11.648 72.2695 9.4443C66.2881 3.6428 57.9681 0.112432 50.0079 0C49.9329 0 49.858 0 49.783 0C45.6455 0 42.4974 1.664 40.3837 4.99199ZM49.9854 2.54097C57.6083 2.6534 65.2987 6.22874 70.493 11.2657C72.3819 13.1096 73.6861 16.0553 74.6305 18.214C75.1028 19.3158 75.4625 20.2378 75.6649 20.7999C75.7998 21.1597 75.8673 21.3846 75.8673 21.3846C76.5419 23.6782 75.5975 29.6146 73.8435 33.3923C73.1464 34.8989 71.4824 38.2494 68.8965 41.0602C70.9877 42.3869 72.9441 44.0734 74.9229 46.3445C80.0048 52.146 93.7215 74.1602 94.0813 75.6219C94.4411 77.061 80.6794 82.5027 80.6794 82.5027C80.6794 82.5027 75.6424 78.4776 70.1108 73.9354C69.8634 79.512 69.5936 83.9868 69.5936 83.9868H61.0937C61.6034 83.1923 62.0906 82.3828 62.5553 81.5583C64.1968 78.725 68.4243 70.0902 68.5592 69.7079C69.4137 66.8746 69.1888 57.7676 68.919 51.7863C68.7841 48.6382 66.3106 46.1197 63.1625 45.8948C61.6109 45.8049 60.2167 45.7149 59.857 45.7149C59.0924 45.7149 58.2829 45.6025 57.4284 45.4001C55.0224 44.7255 54.6176 43.039 54.6176 43.039C55.2248 43.2414 55.8544 43.3988 56.5739 43.3988C58.3729 43.3988 60.7114 42.4319 64.6241 38.8341C66.9177 36.6979 66.7603 34.2468 68.1769 31.1212C68.829 29.6821 69.4362 27.2086 69.8184 24.5777C70.1557 22.2841 72.0896 20.6425 74.3157 20.6425C74.6455 20.6425 74.9828 20.68 75.3276 20.755C74.6755 20.1029 73.4612 19.1135 71.7073 18.5063C71.2576 18.3489 69.2338 17.6968 66.7828 17.4944C66.363 17.4645 65.9283 17.4495 65.4786 17.4495C63.7246 17.4495 61.8583 17.7418 60.2617 18.6637C55.3597 21.497 52.3915 29.1649 51.0648 32.8527C47.6243 42.4769 42.6998 43.9385 38.8546 43.9385C37.3705 43.9385 36.0663 43.7136 35.0544 43.6687C35.0244 43.6687 34.9945 43.6687 34.9645 43.6687C33.9976 43.6687 33.2105 44.4107 33.1431 45.3326C33.1281 45.4826 33.1356 45.64 33.1656 45.8049C33.6378 48.3233 34.2674 52.236 33.9976 53.9C33.6153 56.2386 31.8838 59.4541 29.8825 62.5573C28.8931 64.0863 27.3866 65.2331 25.6326 65.7503C23.3615 66.3799 21.2253 67.2344 19.5388 68.3363C18.5944 68.9209 14.3669 71.5968 13.0402 74.2502C17.6949 71.4169 28.9156 70.495 33.7502 70.495C34.6047 70.495 35.2568 70.5174 35.6616 70.5849C51.4695 72.6761 60.8689 73.4182 60.8689 73.4182C60.3742 74.7674 51.2672 81.7157 51.2672 81.7157C51.2672 81.7157 33.4579 83.1548 23.8787 83.9868C22.8668 84.0768 21.9448 84.1667 21.1353 84.2342C19.6662 84.3691 18.2571 84.4366 16.9079 84.4366C13.31 84.4366 10.1844 83.9868 7.77839 83.1773C5.14748 82.7726 2.89883 81.4458 2.60651 78.7475C2.59151 78.6425 2.57652 78.5376 2.56153 78.4327C2.33667 74.9698 4.67526 68.5162 11.9384 56.5759C16.8179 48.5482 20.3933 43.5112 22.8668 40.3407C22.8818 40.3257 22.8968 40.3107 22.9118 40.2957C26.2847 36.0008 27.6564 35.2362 27.6564 35.2362C27.9487 35.0788 28.3085 34.8989 28.7357 34.719C28.9456 34.6291 29.1705 34.5392 29.4103 34.4492C29.6502 34.3443 29.905 34.2468 30.1749 34.1569C31.3442 33.7296 32.7833 33.2799 34.2899 32.9426C34.6197 32.8677 34.957 32.8002 35.3018 32.7402H35.3243C36.4711 32.5154 37.2806 31.5485 37.3256 30.4017C37.483 25.0049 38.9896 17.337 39.5967 14.7736C41.0808 8.63479 42.5649 2.54097 49.783 2.54097C49.843 2.54097 49.9105 2.54097 49.9854 2.54097Z" fill="#00042D"/>
<path d="M2.56217 78.4318C2.57716 78.5368 2.59216 78.6417 2.60715 78.7466C2.89947 81.445 5.14811 82.7717 7.77902 83.1765C11.0845 84.2783 15.7842 84.728 21.136 84.2333C21.9455 84.1659 22.8674 84.0759 23.8793 83.986C33.4585 83.154 51.2678 81.7149 51.2678 81.7149C51.2678 81.7149 60.3748 76.0033 60.8695 74.6541C60.8695 74.6541 59.5428 74.3618 57.0468 73.9121C55.3603 73.5972 53.1341 73.215 50.3908 72.7653C46.4557 72.1131 41.4862 71.3486 35.6622 70.5841C33.0763 70.2243 18.5051 70.9214 13.0409 74.2494C14.3676 71.596 18.595 68.9201 19.5394 68.3129C21.2259 67.2336 23.3621 66.3791 25.6333 65.7495C27.3872 65.2323 28.8938 64.0855 29.8832 62.5564C31.8845 59.4533 33.6159 56.2377 33.9982 53.8991C34.268 52.2351 33.6384 48.3225 33.1662 45.804C33.1362 45.6391 33.1287 45.4817 33.1437 45.3318C33.2337 44.3874 34.0432 43.6228 35.0551 43.6678C38.6979 43.8477 46.2983 46.1863 51.0654 32.8518C52.3921 29.1641 55.3603 21.4962 60.2623 18.6629C62.2636 17.5161 64.6697 17.3362 66.7834 17.4936C69.2344 17.696 71.2582 18.3481 71.7079 18.5055C73.4619 19.1126 74.6761 20.102 75.3283 20.7541C74.9835 20.6792 74.6462 20.6417 74.3164 20.6417C72.0902 20.6417 70.1564 22.2832 69.8191 24.5768C69.4368 27.2077 68.8297 29.6812 68.1776 31.1204C66.7609 34.246 66.9183 36.697 64.6247 38.8332C59.1605 43.8702 56.732 43.7578 54.6183 43.0382C54.6183 43.0382 55.023 44.7247 57.4291 45.3993C58.2835 45.6016 59.093 45.7141 59.8576 45.7141C60.2174 45.7141 61.6115 45.804 63.1631 45.894C66.3112 46.1188 68.7847 48.6373 68.9196 51.7854C69.1895 57.7668 69.4143 66.8738 68.5598 69.7071C68.4249 70.0894 64.1975 78.7242 62.556 81.5574C62.0912 82.3819 61.604 83.1915 61.0943 83.986H69.5942C69.5942 83.986 69.8641 79.5112 70.1114 73.9345C75.6431 78.4768 80.68 82.5019 80.68 82.5019C80.68 82.5019 94.4417 77.0602 94.0819 75.621C93.7222 74.1594 80.0054 52.1452 74.9235 46.3437C72.9447 44.0726 70.9884 42.3861 68.8971 41.0594C71.4831 38.2486 73.1471 34.8981 73.8441 33.3915C75.5981 29.6138 76.5425 23.6774 75.8679 21.3838C75.8679 21.3838 75.8005 21.1589 75.6655 20.7991C75.4632 20.2369 75.1034 19.315 74.6312 18.2132C73.6867 16.0545 72.3825 13.1087 70.4937 11.2649C65.2993 6.2279 57.609 2.65256 49.986 2.54013C42.588 2.42769 41.0814 8.56649 39.5973 14.7727C38.9902 17.3362 37.4836 25.0041 37.3262 30.4008C37.2812 31.5476 36.4717 32.5145 35.3249 32.7394H35.3024C34.9576 32.7994 34.6203 32.8668 34.2905 32.9418C32.7839 33.2791 31.3448 33.7288 30.1755 34.156C29.9057 34.246 29.6508 34.3434 29.411 34.4484C29.1711 34.5383 28.9463 34.6283 28.7364 34.7182C28.3091 34.8981 27.9494 35.078 27.657 35.2354C27.657 35.2354 26.2854 35.9999 22.9124 40.2948C22.8974 40.3098 22.8824 40.3248 22.8674 40.3398C20.3939 43.5104 16.8186 48.5474 11.939 56.575C4.6759 68.5153 2.3373 74.9689 2.56217 78.4318Z" fill="url(#paint0_linear_2001_4006)"/>
<path style="mix-blend-mode:multiply" d="M19.5387 68.3357C21.2252 67.2339 23.3614 66.3794 25.6326 65.7498C27.3865 65.2326 28.8931 64.0858 29.8825 62.5567C31.8838 59.4536 33.6153 56.238 33.9975 53.8995C34.2674 52.2355 33.6377 48.3228 33.1655 45.8043C33.1356 45.6394 33.128 45.482 33.143 45.3321C32.5134 47.3784 32.5359 50.4365 31.8838 52.3029C28.1511 63.5012 20.2133 67.5262 19.5387 68.3357Z" fill="url(#paint1_linear_2001_4006)"/>
<path style="mix-blend-mode:multiply" d="M2.56152 78.4334C2.57652 78.5384 2.59151 78.6433 2.6065 78.7482C2.89882 81.4466 5.14747 82.7733 7.77838 83.178C11.0839 84.2799 15.7836 84.7296 21.1353 84.2349C21.9448 84.1675 22.8668 84.0775 23.8787 83.9876C33.4579 83.1556 51.2671 81.7164 51.2671 81.7164C51.2671 81.7164 54.82 76.9043 57.0461 73.9136C55.3597 73.5988 53.1335 73.2166 50.3902 72.7668C48.3214 75.6901 45.2408 77.7813 38.7647 78.6583C29.3429 79.94 22.3721 81.2892 14.0971 80.4347C9.68972 79.985 6.45168 77.9837 6.78897 75.2403C7.8908 65.5487 17.7848 47.4021 22.8668 40.3414C20.3933 43.512 16.8179 48.5489 11.9384 56.5766C4.67525 68.5169 2.33666 74.9705 2.56152 78.4334Z" fill="url(#paint2_linear_2001_4006)"/>
<path d="M77.9585 84.2559H33.8177C33.233 84.2559 32.7608 83.7837 32.7608 83.199V82.5469C32.7608 81.9623 33.233 81.5125 33.8177 81.5125H77.9585C78.5432 81.5125 79.0154 81.9623 79.0154 82.5469V83.199C79.0154 83.7837 78.5432 84.2559 77.9585 84.2559Z" fill="white"/>
<path d="M68.6264 84.2559H23.1364C22.7316 84.2559 22.3943 83.9186 22.3943 83.5138V82.8842C22.3943 82.1197 23.024 81.5125 23.7885 81.5125H68.6264C68.6414 81.5125 68.6489 81.5125 68.6489 81.5125V84.2334C68.6489 84.2484 68.6414 84.2559 68.6264 84.2559Z" fill="white"/>
<path d="M68.6264 84.2559H23.1364C22.7316 84.2559 22.3943 83.9186 22.3943 83.5138V82.8842C22.3943 82.1197 23.024 81.5125 23.7885 81.5125H68.6264C68.6414 81.5125 68.6489 81.5125 68.6489 81.5125V84.2334C68.6489 84.2484 68.6414 84.2559 68.6264 84.2559Z" fill="white"/>
<path d="M102.761 84.2569H50.7721C49.7153 84.2569 48.9957 83.1551 49.4229 82.1881L64.7587 46.7495C65.006 46.2099 65.5232 45.8726 66.1304 45.8726H118.119C119.176 45.8726 119.895 46.9519 119.468 47.9413L104.132 83.3574C103.885 83.8971 103.368 84.2569 102.761 84.2569Z" fill="url(#paint3_linear_2001_4006)"/>
<path d="M102.761 84.2569H50.7721C49.7153 84.2569 48.9957 83.1551 49.4229 82.1881L64.7587 46.7495C65.006 46.2099 65.5232 45.8726 66.1304 45.8726H118.119C119.176 45.8726 119.895 46.9519 119.468 47.9413L104.132 83.3574C103.885 83.8971 103.368 84.2569 102.761 84.2569Z" fill="white"/>
<path d="M105.302 84.2566H53.3135C52.2567 84.2566 51.5371 83.1548 51.9643 82.1879L67.3001 46.7493C67.5474 46.2096 68.0646 45.8723 68.6717 45.8723H120.66C121.717 45.8723 122.437 46.9517 122.01 47.9411L106.674 83.3572C106.426 83.8969 105.909 84.2566 105.302 84.2566Z" fill="url(#paint4_linear_2001_4006)"/>
<path style="mix-blend-mode:multiply" d="M54.618 43.0393C54.618 43.0393 55.8772 45.4228 58.8904 44.8157C64.9618 43.6239 68.8069 39.2391 70.8757 33.7299C72.1574 30.3344 72.6071 27.2763 73.0569 25.0052C73.5516 22.3518 75.328 20.7552 75.328 20.7552C74.9832 20.6803 74.6459 20.6428 74.3161 20.6428C72.09 20.6428 70.1561 22.2843 69.8188 24.5779C69.4366 27.2088 68.8294 29.6823 68.1773 31.1215C66.7607 34.2471 66.9181 36.6981 64.6245 38.8343C59.1603 43.8713 56.7317 43.7588 54.618 43.0393Z" fill="url(#paint5_linear_2001_4006)"/>
<path style="mix-blend-mode:multiply" d="M35.0547 43.668C38.6975 43.8479 46.2979 46.1865 51.0651 32.852C52.3918 29.1643 55.36 21.4964 60.262 18.6631C62.2633 17.5163 64.6694 17.3364 66.7831 17.4938C53.4936 14.9303 50.8627 24.7344 45.5109 33.9988C41.1486 41.5543 36.6962 42.4537 35.0547 43.668Z" fill="url(#paint6_linear_2001_4006)"/>
<path d="M42.3624 54.3719C42.5198 51.5836 42.6547 48.7278 42.6322 46.9964C42.6322 46.749 42.8121 46.5466 43.0595 46.5466C43.3068 46.5466 43.5092 46.7265 43.5092 46.9739C43.5317 48.7503 43.3743 51.6286 43.2394 54.4169C43.1044 56.8454 42.992 59.3864 42.992 61.0279C42.992 61.2528 42.7896 61.4551 42.5423 61.4551C42.2949 61.4551 42.115 61.2528 42.115 61.0279C42.115 59.3639 42.2275 56.9354 42.3624 54.3719Z" fill="url(#paint7_linear_2001_4006)"/>
<path d="M53.9879 47.852C53.9879 47.6046 54.1678 47.4022 54.4151 47.4022C54.6625 47.4022 54.8648 47.5821 54.8648 47.8295C54.9098 50.6628 54.7749 53.8333 54.64 56.914C54.5725 58.2857 54.505 59.6124 54.4601 60.8716C54.4601 61.1189 54.2577 61.2988 54.0328 61.2988C54.0328 61.2988 54.0253 61.2988 54.0103 61.2988C53.7855 61.2988 53.5831 61.074 53.5831 60.8491C53.6281 59.5674 53.6955 58.2407 53.763 56.869C53.8979 53.8108 54.0328 50.6628 53.9879 47.852Z" fill="url(#paint8_linear_2001_4006)"/>
<defs>
<linearGradient id="paint0_linear_2001_4006" x1="99.3453" y1="71.3589" x2="82.6868" y2="-8.34063" gradientUnits="userSpaceOnUse">
<stop stop-color="#FF00C1"/>
<stop offset="1" stop-color="#F4AC24"/>
</linearGradient>
<linearGradient id="paint1_linear_2001_4006" x1="44.9165" y1="70.798" x2="46.052" y2="44.4504" gradientUnits="userSpaceOnUse">
<stop stop-color="#F4D63B" stop-opacity="0"/>
<stop offset="1" stop-color="#5C1CB2"/>
</linearGradient>
<linearGradient id="paint2_linear_2001_4006" x1="1.73245" y1="52.9232" x2="22.1693" y2="115.869" gradientUnits="userSpaceOnUse">
<stop stop-color="#F4D63B" stop-opacity="0"/>
<stop offset="1" stop-color="#5C1CB2"/>
</linearGradient>
<linearGradient id="paint3_linear_2001_4006" x1="74.9738" y1="41.9208" x2="64.5062" y2="82.954" gradientUnits="userSpaceOnUse">
<stop stop-color="#A76DFC"/>
<stop offset="1" stop-color="#5C1CB2"/>
</linearGradient>
<linearGradient id="paint4_linear_2001_4006" x1="77.5157" y1="41.9205" x2="67.048" y2="82.9538" gradientUnits="userSpaceOnUse">
<stop stop-color="#A76DFC"/>
<stop offset="1" stop-color="#5C1CB2"/>
</linearGradient>
<linearGradient id="paint5_linear_2001_4006" x1="92.7752" y1="51.2142" x2="72.7461" y2="6.05406" gradientUnits="userSpaceOnUse">
<stop stop-color="#F4D63B" stop-opacity="0"/>
<stop offset="1" stop-color="#5C1CB2"/>
</linearGradient>
<linearGradient id="paint6_linear_2001_4006" x1="42.0212" y1="6.1494" x2="32.6258" y2="47.8905" gradientUnits="userSpaceOnUse">
<stop stop-color="#F4D63B" stop-opacity="0"/>
<stop offset="1" stop-color="#5C1CB2"/>
</linearGradient>
<linearGradient id="paint7_linear_2001_4006" x1="-37.2791" y1="48.6853" x2="-36.1155" y2="67.186" gradientUnits="userSpaceOnUse">
<stop stop-color="#F4AC24"/>
<stop offset="1" stop-color="#FF00C1"/>
</linearGradient>
<linearGradient id="paint8_linear_2001_4006" x1="-21.9638" y1="47.7213" x2="-20.8011" y2="66.2117" gradientUnits="userSpaceOnUse">
<stop stop-color="#F4AC24"/>
<stop offset="1" stop-color="#FF00C1"/>
</linearGradient>
</defs>
</svg>
