<svg width="572" height="608" viewBox="0 0 572 608" fill="none" xmlns="http://www.w3.org/2000/svg">
<g clip-path="url(#clip0_2001_68)">
<mask id="mask0_2001_68" style="mask-type:luminance" maskUnits="userSpaceOnUse" x="-222" y="0" width="805" height="608">
<path d="M583 0H-222V608H583V0Z" fill="white"/>
</mask>
<g mask="url(#mask0_2001_68)">
<g opacity="0.2" filter="url(#filter0_f_2001_68)">
<path d="M-504.159 -390.853L-529 -366.012L-93.193 69.7951L210.843 359.214L-68.352 44.9541L-504.159 -390.853Z" fill="url(#paint0_linear_2001_68)"/>
</g>
<g opacity="0.32" filter="url(#filter1_f_2001_68)">
<path d="M-297.074 -380.376L-321.915 -355.535L113.892 80.2726L417.929 369.691L138.733 55.4316L-297.074 -380.376Z" fill="url(#paint1_linear_2001_68)"/>
</g>
<g opacity="0.32" filter="url(#filter2_f_2001_68)">
<path d="M-217.568 -487L-242.409 -462.159L193.398 -26.3516L497.434 263.067L218.239 -51.1927L-217.568 -487Z" fill="url(#paint2_linear_2001_68)"/>
</g>
</g>
</g>
<defs>
<filter id="filter0_f_2001_68" x="-609" y="-470.853" width="899.843" height="910.067" filterUnits="userSpaceOnUse" color-interpolation-filters="sRGB">
<feFlood flood-opacity="0" result="BackgroundImageFix"/>
<feBlend mode="normal" in="SourceGraphic" in2="BackgroundImageFix" result="shape"/>
<feGaussianBlur stdDeviation="40" result="effect1_foregroundBlur_2001_68"/>
</filter>
<filter id="filter1_f_2001_68" x="-401.915" y="-460.376" width="899.844" height="910.067" filterUnits="userSpaceOnUse" color-interpolation-filters="sRGB">
<feFlood flood-opacity="0" result="BackgroundImageFix"/>
<feBlend mode="normal" in="SourceGraphic" in2="BackgroundImageFix" result="shape"/>
<feGaussianBlur stdDeviation="40" result="effect1_foregroundBlur_2001_68"/>
</filter>
<filter id="filter2_f_2001_68" x="-322.409" y="-567" width="899.843" height="910.067" filterUnits="userSpaceOnUse" color-interpolation-filters="sRGB">
<feFlood flood-opacity="0" result="BackgroundImageFix"/>
<feBlend mode="normal" in="SourceGraphic" in2="BackgroundImageFix" result="shape"/>
<feGaussianBlur stdDeviation="40" result="effect1_foregroundBlur_2001_68"/>
</filter>
<linearGradient id="paint0_linear_2001_68" x1="-516.58" y1="-378.433" x2="-80.772" y2="57.3746" gradientUnits="userSpaceOnUse">
<stop stop-color="white"/>
<stop offset="1" stop-color="#D3D8DF"/>
</linearGradient>
<linearGradient id="paint1_linear_2001_68" x1="-309.495" y1="-367.955" x2="126.313" y2="67.8521" gradientUnits="userSpaceOnUse">
<stop stop-color="white"/>
<stop offset="1" stop-color="#D3D8DF"/>
</linearGradient>
<linearGradient id="paint2_linear_2001_68" x1="-229.989" y1="-474.579" x2="205.819" y2="-38.7722" gradientUnits="userSpaceOnUse">
<stop stop-color="white"/>
<stop offset="1" stop-color="#D3D8DF"/>
</linearGradient>
<clipPath id="clip0_2001_68">
<rect width="805" height="608" fill="white" transform="translate(-233)"/>
</clipPath>
</defs>
</svg>
